<svg xmlns="http://www.w3.org/2000/svg" width="210" height="290" viewBox="0 0 210 290" font-family="ui-sans-serif,system-ui,-apple-system,sans-serif">
<style>
.title{font-size:14px;font-weight:bold;fill:#eee}
.subtitle{font-size:10px;fill:#888}
.label{font-size:9px;fill:#bbb;text-anchor:middle;pointer-events:none}
.legend{font-size:9px;fill:#888}
</style>
<rect width="210" height="290" fill="#1a1a1f"/>
<text class="title" x="14" y="20">Search and Pathfinding — plan (top-down)</text>
<text class="subtitle" x="14" y="36">5×5 grid, looking down −Y</text>
<rect x="50" y="50" width="22" height="22" fill="#4a4a52" stroke="#0d0d12" stroke-width="0.4"/>
<rect x="72" y="50" width="22" height="22" fill="#4a4a52" stroke="#0d0d12" stroke-width="0.4"/>
<rect x="94" y="50" width="22" height="22" fill="#4a4a52" stroke="#0d0d12" stroke-width="0.4"/>
<rect x="116" y="50" width="22" height="22" fill="#4a4a52" stroke="#0d0d12" stroke-width="0.4"/>
<rect x="138" y="50" width="22" height="22" fill="#4a4a52" stroke="#0d0d12" stroke-width="0.4"/>
<rect x="50" y="72" width="22" height="22" fill="#4a4a52" stroke="#0d0d12" stroke-width="0.4"/>
<rect x="72" y="72" width="22" height="22" fill="#4a4a52" stroke="#0d0d12" stroke-width="0.4"/>
<rect x="94" y="72" width="22" height="22" fill="#4a4a52" stroke="#0d0d12" stroke-width="0.4"/>
<rect x="116" y="72" width="22" height="22" fill="#4a4a52" stroke="#0d0d12" stroke-width="0.4"/>
<rect x="138" y="72" width="22" height="22" fill="#4a4a52" stroke="#0d0d12" stroke-width="0.4"/>
<rect x="50" y="94" width="22" height="22" fill="#4a4a52" stroke="#0d0d12" stroke-width="0.4"/>
<rect x="72" y="94" width="22" height="22" fill="#4a4a52" stroke="#0d0d12" stroke-width="0.4"/>
<rect x="94" y="94" width="22" height="22" fill="#4a4a52" stroke="#0d0d12" stroke-width="0.4"/>
<rect x="116" y="94" width="22" height="22" fill="#4a4a52" stroke="#0d0d12" stroke-width="0.4"/>
<rect x="138" y="94" width="22" height="22" fill="#4a4a52" stroke="#0d0d12" stroke-width="0.4"/>
<rect x="50" y="116" width="22" height="22" fill="#4a4a52" stroke="#0d0d12" stroke-width="0.4"/>
<rect x="72" y="116" width="22" height="22" fill="#4a4a52" stroke="#0d0d12" stroke-width="0.4"/>
<rect x="94" y="116" width="22" height="22" fill="#4a4a52" stroke="#0d0d12" stroke-width="0.4"/>
<rect x="116" y="116" width="22" height="22" fill="#4a4a52" stroke="#0d0d12" stroke-width="0.4"/>
<rect x="138" y="116" width="22" height="22" fill="#4a4a52" stroke="#0d0d12" stroke-width="0.4"/>
<rect x="50" y="138" width="22" height="22" fill="#4a4a52" stroke="#0d0d12" stroke-width="0.4"/>
<rect x="72" y="138" width="22" height="22" fill="#4a4a52" stroke="#0d0d12" stroke-width="0.4"/>
<rect x="94" y="138" width="22" height="22" fill="#4a4a52" stroke="#0d0d12" stroke-width="0.4"/>
<rect x="116" y="138" width="22" height="22" fill="#4a4a52" stroke="#0d0d12" stroke-width="0.4"/>
<rect x="138" y="138" width="22" height="22" fill="#101015" stroke="#0d0d12" stroke-width="0.4"/>
<line x1="61.0" y1="61.0" x2="149.0" y2="149.0" stroke="#6b6" stroke-width="1.3" stroke-dasharray="4 3" opacity="0.55"/>
<circle cx="61.0" cy="61.0" r="6" fill="#4ade80" stroke="#0d0d12" stroke-width="1"/>
<text x="70.0" y="64.0" font-size="9" fill="#4ade80">spawn</text>
<circle cx="149.0" cy="149.0" r="6" fill="#f87171" stroke="#0d0d12" stroke-width="1"/>
<text x="158.0" y="152.0" font-size="9" fill="#f87171">teleport</text>
<rect x="74.4" y="74.4" width="17.2" height="17.2" fill="#92a2eb" stroke="#fff" stroke-width="0.6" opacity="0.92" rx="1.5"><title>grid2d_bfs
family: substrate_vectors
footprint: (1.0, 1.0, 1.0)</title></rect>
<text x="83.0" y="100.6" class="label">grid2d_bfs</text>
<rect x="118.4" y="74.4" width="17.2" height="17.2" fill="#92a2eb" stroke="#fff" stroke-width="0.6" opacity="0.92" rx="1.5"><title>grid2d_dfs_maze
family: substrate_vectors
footprint: (1.0, 1.0, 1.0)</title></rect>
<text x="127.0" y="100.6" class="label">grid2d_dfs_maze</text>
<rect x="96.4" y="118.4" width="17.2" height="17.2" fill="#8cac1a" stroke="#fff" stroke-width="0.6" opacity="0.92" rx="1.5"><title>grid3d_dijkstra
family: grid3d
footprint: (1.0, 1.0, 1.0)</title></rect>
<text x="105.0" y="144.6" class="label">grid3d_dijkstra</text>
<text class="subtitle" x="14" y="176">legend:</text>
<rect x="64" y="167" width="11" height="11" fill="#8cac1a" stroke="#111" stroke-width="0.4"/>
<text x="78" y="176" class="legend">grid3d</text>
<rect x="128" y="167" width="11" height="11" fill="#92a2eb" stroke="#111" stroke-width="0.4"/>
<text x="142" y="176" class="legend">substrate_vectors</text>
</svg>