{
    "asset" : {
        "generator" : "Khronos glTF Blender I/O v1.8.19",
        "version" : "2.0"
    },
    "scene" : 0,
    "scenes" : [
        {
            "name" : "Scene",
            "nodes" : [
                27
            ]
        }
    ],
    "nodes" : [
        {
            "name" : "Thumb_Tip_L",
            "rotation" : [
                -0.07576879113912582,
                -0.01925704814493656,
                -0.03371240943670273,
                0.9963693022727966
            ],
            "scale" : [
                1.000000238418579,
                1.0000003576278687,
                1.000000238418579
            ],
            "translation" : [
                -6.60728227686036e-09,
                0.030749469995498657,
                -1.2581430119951165e-08
            ]
        },
        {
            "children" : [
                0
            ],
            "name" : "Thumb_Distal_L",
            "rotation" : [
                0.05564066767692566,
                0.010326176881790161,
                0.013984713703393936,
                0.9982995390892029
            ],
            "scale" : [
                0.9999998807907104,
                0.9999999403953552,
                1.0000001192092896
            ],
            "translation" : [
                9.313225746154785e-10,
                0.04214789718389511,
                7.799826562404633e-09
            ]
        },
        {
            "children" : [
                1
            ],
            "name" : "Thumb_Proximal_L",
            "rotation" : [
                -0.04595039784908295,
                -0.027135686948895454,
                -0.07525717467069626,
                0.9957352876663208
            ],
            "scale" : [
                1.0000001192092896,
                1.000000238418579,
                1.0000001192092896
            ],
            "translation" : [
                -1.805933513843172e-09,
                0.04491649940609932,
                -2.582286828811675e-09
            ]
        },
        {
            "children" : [
                2
            ],
            "name" : "Thumb_Metacarpal_L",
            "rotation" : [
                0.323537141084671,
                -2.5651101168477908e-05,
                -0.02722044661641121,
                0.9458239674568176
            ],
            "scale" : [
                1.0000001192092896,
                0.9999998211860657,
                0.9999998211860657
            ],
            "translation" : [
                0.009999999776482582,
                0.027172859758138657,
                0.019999973475933075
            ]
        },
        {
            "name" : "Index_Tip_L",
            "rotation" : [
                -0.052288398146629333,
                -0.0005572423106059432,
                0.10362064093351364,
                0.9932413697242737
            ],
            "scale" : [
                0.9999998211860657,
                0.9999998211860657,
                0.9999999403953552
            ],
            "translation" : [
                3.869945697232424e-09,
                0.027395004406571388,
                2.5135296066736146e-09
            ]
        },
        {
            "children" : [
                4
            ],
            "name" : "Index_Distal_L",
            "rotation" : [
                0.01422597374767065,
                -0.011990731582045555,
                -0.13454154133796692,
                0.99073326587677
            ],
            "scale" : [
                1,
                1.0000001192092896,
                1
            ],
            "translation" : [
                8.363246983833506e-09,
                0.03134570270776749,
                -2.93942897799937e-10
            ]
        },
        {
            "children" : [
                5
            ],
            "name" : "Index_Intermediate_L",
            "rotation" : [
                -0.013683222234249115,
                -0.024668235331773758,
                -0.23507094383239746,
                0.9715688228607178
            ],
            "scale" : [
                1.0000001192092896,
                0.9999999403953552,
                1.0000001192092896
            ],
            "translation" : [
                -5.404905412120797e-09,
                0.03811633214354515,
                -4.256273111735709e-09
            ]
        },
        {
            "children" : [
                6
            ],
            "name" : "Index_Proximal_L",
            "rotation" : [
                0.11122289299964905,
                -0.002778118010610342,
                0.11757422983646393,
                0.9868121147155762
            ],
            "scale" : [
                1,
                1.000000238418579,
                1
            ],
            "translation" : [
                4.366760730789565e-09,
                0.08036760985851288,
                8.850355448508651e-10
            ]
        },
        {
            "children" : [
                7
            ],
            "name" : "Index_Metacarpal_L",
            "rotation" : [
                -0.0005888000596314669,
                2.1036856196587905e-05,
                0.025219636037945747,
                0.9996817708015442
            ],
            "scale" : [
                0.9999998807907104,
                0.9999998807907104,
                0.9999998807907104
            ],
            "translation" : [
                -0.010000000707805157,
                0.0271772388368845,
                0.022405153140425682
            ]
        },
        {
            "name" : "Middle_Tip_L",
            "rotation" : [
                0.013688270933926105,
                7.989391451701522e-05,
                0.16841112077236176,
                0.9856218099594116
            ],
            "scale" : [
                1.0000001192092896,
                0.9999998807907104,
                1
            ],
            "translation" : [
                -3.6651087720329656e-10,
                0.02334658056497574,
                -9.50035272673233e-10
            ]
        },
        {
            "children" : [
                9
            ],
            "name" : "Middle_Distal_L",
            "rotation" : [
                -0.013931453227996826,
                -0.00014241690223570913,
                -0.16861237585544586,
                0.985584020614624
            ],
            "scale" : [
                1,
                1.000000238418579,
                0.9999998807907104
            ],
            "translation" : [
                -7.437734428350495e-09,
                0.0324166938662529,
                -5.188994234295308e-10
            ]
        },
        {
            "children" : [
                10
            ],
            "name" : "Middle_Intermediate_L",
            "rotation" : [
                0.039455436170101166,
                0.0049287499859929085,
                -0.13782720267772675,
                0.9896578192710876
            ],
            "scale" : [
                0.9999999403953552,
                1,
                1
            ],
            "translation" : [
                9.817584967208859e-09,
                0.04500335082411766,
                2.7146476733186375e-10
            ]
        },
        {
            "children" : [
                11
            ],
            "name" : "Middle_Proximal_L",
            "rotation" : [
                -0.011946626007556915,
                0.0009667036356404424,
                -0.010500827804207802,
                0.9998730421066284
            ],
            "translation" : [
                -1.6999021079655563e-09,
                0.08046326041221619,
                3.5120356622897475e-10
            ]
        },
        {
            "children" : [
                12
            ],
            "name" : "Middle_Metacarpal_L",
            "rotation" : [
                -0.03585469722747803,
                4.200844341539778e-05,
                0.049977634102106094,
                0.9981065392494202
            ],
            "scale" : [
                1,
                0.9999998211860657,
                1
            ],
            "translation" : [
                -0.010000001639127731,
                0.027145756408572197,
                0.003527588676661253
            ]
        },
        {
            "name" : "Ring_Tip_L",
            "rotation" : [
                0.033051781356334686,
                -0.006719762925058603,
                0.12635120749473572,
                0.9914120435714722
            ],
            "scale" : [
                1.0000001192092896,
                1,
                0.9999999403953552
            ],
            "translation" : [
                4.6788830587729535e-09,
                0.02704939991235733,
                7.65920571410561e-09
            ]
        },
        {
            "children" : [
                14
            ],
            "name" : "Ring_Distal_L",
            "rotation" : [
                -0.011351855471730232,
                0.012621416710317135,
                -0.1319841593503952,
                0.9911065101623535
            ],
            "scale" : [
                0.9999998807907104,
                0.9999999403953552,
                1.0000001192092896
            ],
            "translation" : [
                6.3122231885870406e-09,
                0.027797561138868332,
                1.867633381280598e-09
            ]
        },
        {
            "children" : [
                15
            ],
            "name" : "Ring_Intermediate_L",
            "rotation" : [
                0.01732618361711502,
                0.018608426675200462,
                -0.16082897782325745,
                0.9866547584533691
            ],
            "scale" : [
                1.000000238418579,
                1.0000001192092896,
                1
            ],
            "translation" : [
                2.8315982891768954e-09,
                0.04013120383024216,
                1.2115293213099676e-09
            ]
        },
        {
            "children" : [
                16
            ],
            "name" : "Ring_Proximal_L",
            "rotation" : [
                -0.05105665326118469,
                -0.0020229595247656107,
                0.041804488748311996,
                0.9978184103965759
            ],
            "scale" : [
                0.9999998807907104,
                1,
                0.9999998807907104
            ],
            "translation" : [
                6.765711879630487e-10,
                0.0739438384771347,
                1.652393555318099e-09
            ]
        },
        {
            "children" : [
                17
            ],
            "name" : "Ring_Metacarpal_L",
            "rotation" : [
                -0.07119500637054443,
                1.573377630847972e-05,
                0.018085606396198273,
                0.9972984790802002
            ],
            "scale" : [
                1,
                1,
                0.9999999403953552
            ],
            "translation" : [
                -0.010000001639127731,
                0.027118023484945297,
                -0.013099986128509045
            ]
        },
        {
            "name" : "Little_Tip_L",
            "rotation" : [
                0.01583627425134182,
                -0.01933966763317585,
                0.15377692878246307,
                0.9877893924713135
            ],
            "scale" : [
                0.9999999403953552,
                1.000000238418579,
                0.9999999403953552
            ],
            "translation" : [
                6.67810073906594e-09,
                0.019765084609389305,
                -5.099366262584226e-09
            ]
        },
        {
            "children" : [
                19
            ],
            "name" : "Little_Distal_L",
            "rotation" : [
                -0.018054762855172157,
                0.011455274187028408,
                -0.10707494616508484,
                0.9940209984779358
            ],
            "scale" : [
                0.9999998807907104,
                0.9999997019767761,
                0.9999999403953552
            ],
            "translation" : [
                -2.8715083644215156e-09,
                0.018024392426013947,
                -1.675981797788495e-09
            ]
        },
        {
            "children" : [
                20
            ],
            "name" : "Little_Intermediate_L",
            "rotation" : [
                0.04492580518126488,
                0.032807961106300354,
                -0.1850595623254776,
                0.9811515212059021
            ],
            "scale" : [
                0.9999997615814209,
                0.9999997615814209,
                1.000000238418579
            ],
            "translation" : [
                -5.023130356107686e-09,
                0.033123549073934555,
                -1.1094805074662872e-09
            ]
        },
        {
            "children" : [
                21
            ],
            "name" : "Little_Proximal_L",
            "rotation" : [
                -0.08928600698709488,
                0.003168066730722785,
                -0.006739125121384859,
                0.9959782958030701
            ],
            "scale" : [
                1,
                0.9999999403953552,
                1
            ],
            "translation" : [
                4.733452518834724e-10,
                0.06571120023727417,
                7.728088391445453e-09
            ]
        },
        {
            "children" : [
                22
            ],
            "name" : "Little_Metacarpal_L",
            "rotation" : [
                -0.09176953881978989,
                2.4562241378589533e-05,
                0.028447721153497696,
                0.9953738451004028
            ],
            "scale" : [
                0.9999999403953552,
                0.9999999403953552,
                0.9999999403953552
            ],
            "translation" : [
                -4.5057291231387353e-10,
                0.02708965539932251,
                -0.029999960213899612
            ]
        },
        {
            "name" : "Palm_L",
            "rotation" : [
                0.7065240144729614,
                -6.507499620056478e-06,
                -8.709444955457002e-06,
                0.7076891660690308
            ],
            "scale" : [
                1,
                0.9999998807907104,
                0.9999998807907104
            ],
            "translation" : [
                0.0307819414883852,
                0.06705550104379654,
                -0.042065296322107315
            ]
        },
        {
            "children" : [
                3,
                8,
                13,
                18,
                23,
                24
            ],
            "name" : "Wrist_L",
            "rotation" : [
                -0.7065169215202332,
                6.472751920227893e-06,
                6.472751920227893e-06,
                0.7076961994171143
            ],
            "scale" : [
                1,
                0.9999998807907104,
                1
            ],
            "translation" : [
                3.8642607336214496e-08,
                -1.8697472114581615e-05,
                0.027175573632121086
            ]
        },
        {
            "mesh" : 0,
            "name" : "mesh_Hand_Nails_L.001",
            "skin" : 0
        },
        {
            "children" : [
                26,
                25
            ],
            "name" : "Armature"
        }
    ],
    "materials" : [
        {
            "doubleSided" : true,
            "name" : "Nails",
            "pbrMetallicRoughness" : {
                "baseColorFactor" : [
                    0.06237562745809555,
                    0.005750066600739956,
                    0.8000000715255737,
                    1
                ],
                "metallicFactor" : 0,
                "roughnessFactor" : 0.5
            }
        },
        {
            "doubleSided" : true,
            "name" : "Hand",
            "pbrMetallicRoughness" : {
                "baseColorFactor" : [
                    0.8000000715255737,
                    0.027876468375325203,
                    0.7199364304542542,
                    1
                ],
                "metallicFactor" : 0,
                "roughnessFactor" : 0.5
            }
        }
    ],
    "meshes" : [
        {
            "name" : "mesh_Hand_Nails_L.001",
            "primitives" : [
                {
                    "attributes" : {
                        "POSITION" : 0,
                        "NORMAL" : 1,
                        "TEXCOORD_0" : 2,
                        "JOINTS_0" : 3,
                        "WEIGHTS_0" : 4
                    },
                    "indices" : 5,
                    "material" : 0
                },
                {
                    "attributes" : {
                        "POSITION" : 6,
                        "NORMAL" : 7,
                        "TEXCOORD_0" : 8,
                        "JOINTS_0" : 9,
                        "WEIGHTS_0" : 10
                    },
                    "indices" : 11,
                    "material" : 1
                }
            ]
        }
    ],
    "skins" : [
        {
            "inverseBindMatrices" : 12,
            "joints" : [
                25,
                3,
                2,
                1,
                0,
                8,
                7,
                6,
                5,
                4,
                13,
                12,
                11,
                10,
                9,
                18,
                17,
                16,
                15,
                14,
                23,
                22,
                21,
                20,
                19,
                24
            ],
            "name" : "Armature"
        }
    ],
    "accessors" : [
        {
            "bufferView" : 0,
            "componentType" : 5126,
            "count" : 157,
            "max" : [
                0.03149297833442688,
                0.09075885266065598,
                -0.08012646436691284
            ],
            "min" : [
                -0.017844486981630325,
                -0.0675305649638176,
                -0.18464550375938416
            ],
            "type" : "VEC3"
        },
        {
            "bufferView" : 1,
            "componentType" : 5126,
            "count" : 157,
            "type" : "VEC3"
        },
        {
            "bufferView" : 2,
            "componentType" : 5126,
            "count" : 157,
            "type" : "VEC2"
        },
        {
            "bufferView" : 3,
            "componentType" : 5121,
            "count" : 157,
            "type" : "VEC4"
        },
        {
            "bufferView" : 4,
            "componentType" : 5126,
            "count" : 157,
            "type" : "VEC4"
        },
        {
            "bufferView" : 5,
            "componentType" : 5123,
            "count" : 582,
            "type" : "SCALAR"
        },
        {
            "bufferView" : 6,
            "componentType" : 5126,
            "count" : 1831,
            "max" : [
                0.03656640648841858,
                0.09036537259817123,
                0.02576880343258381
            ],
            "min" : [
                -0.03117927722632885,
                -0.06861073523759842,
                -0.18647877871990204
            ],
            "type" : "VEC3"
        },
        {
            "bufferView" : 7,
            "componentType" : 5126,
            "count" : 1831,
            "type" : "VEC3"
        },
        {
            "bufferView" : 8,
            "componentType" : 5126,
            "count" : 1831,
            "type" : "VEC2"
        },
        {
            "bufferView" : 9,
            "componentType" : 5121,
            "count" : 1831,
            "type" : "VEC4"
        },
        {
            "bufferView" : 10,
            "componentType" : 5126,
            "count" : 1831,
            "type" : "VEC4"
        },
        {
            "bufferView" : 11,
            "componentType" : 5123,
            "count" : 9642,
            "type" : "SCALAR"
        },
        {
            "bufferView" : 12,
            "componentType" : 5126,
            "count" : 26,
            "type" : "MAT4"
        }
    ],
    "bufferViews" : [
        {
            "buffer" : 0,
            "byteLength" : 1884,
            "byteOffset" : 0
        },
        {
            "buffer" : 0,
            "byteLength" : 1884,
            "byteOffset" : 1884
        },
        {
            "buffer" : 0,
            "byteLength" : 1256,
            "byteOffset" : 3768
        },
        {
            "buffer" : 0,
            "byteLength" : 628,
            "byteOffset" : 5024
        },
        {
            "buffer" : 0,
            "byteLength" : 2512,
            "byteOffset" : 5652
        },
        {
            "buffer" : 0,
            "byteLength" : 1164,
            "byteOffset" : 8164
        },
        {
            "buffer" : 0,
            "byteLength" : 21972,
            "byteOffset" : 9328
        },
        {
            "buffer" : 0,
            "byteLength" : 21972,
            "byteOffset" : 31300
        },
        {
            "buffer" : 0,
            "byteLength" : 14648,
            "byteOffset" : 53272
        },
        {
            "buffer" : 0,
            "byteLength" : 7324,
            "byteOffset" : 67920
        },
        {
            "buffer" : 0,
            "byteLength" : 29296,
            "byteOffset" : 75244
        },
        {
            "buffer" : 0,
            "byteLength" : 19284,
            "byteOffset" : 104540
        },
        {
            "buffer" : 0,
            "byteLength" : 1664,
            "byteOffset" : 123824
        }
    ],
    "buffers" : [
        {
            "byteLength" : 125488,
            "uri" : "Hand_L_Nails.bin"
        }
    ]
}
