<svg xmlns="http://www.w3.org/2000/svg" width="432" height="292" viewBox="0 0 432 292" font-family="ui-sans-serif,system-ui,-apple-system,sans-serif">
<style>
.title{font-size:14px;font-weight:bold;fill:#eee}
.subtitle{font-size:10px;fill:#888}
.label{font-size:9px;fill:#bbb;text-anchor:middle;pointer-events:none}
.legend{font-size:9px;fill:#888}
</style>
<rect width="432" height="292" fill="#1a1a1f"/>
<text class="title" x="14" y="20">CircleSpiral — dressing room (plan)</text>
<text class="subtitle" x="14" y="36">6×6 footing, anchor=[3,3]</text>
<rect x="50" y="50" width="22" height="22" fill="#4a4a52" stroke="#0d0d12" stroke-width="0.4"/>
<rect x="72" y="50" width="22" height="22" fill="#4a4a52" stroke="#0d0d12" stroke-width="0.4"/>
<rect x="94" y="50" width="22" height="22" fill="#4a4a52" stroke="#0d0d12" stroke-width="0.4"/>
<rect x="116" y="50" width="22" height="22" fill="#4a4a52" stroke="#0d0d12" stroke-width="0.4"/>
<rect x="138" y="50" width="22" height="22" fill="#4a4a52" stroke="#0d0d12" stroke-width="0.4"/>
<rect x="160" y="50" width="22" height="22" fill="#4a4a52" stroke="#0d0d12" stroke-width="0.4"/>
<rect x="50" y="72" width="22" height="22" fill="#4a4a52" stroke="#0d0d12" stroke-width="0.4"/>
<rect x="72" y="72" width="22" height="22" fill="#4a4a52" stroke="#0d0d12" stroke-width="0.4"/>
<rect x="94" y="72" width="22" height="22" fill="#4a4a52" stroke="#0d0d12" stroke-width="0.4"/>
<rect x="116" y="72" width="22" height="22" fill="#4a4a52" stroke="#0d0d12" stroke-width="0.4"/>
<rect x="138" y="72" width="22" height="22" fill="#4a4a52" stroke="#0d0d12" stroke-width="0.4"/>
<rect x="160" y="72" width="22" height="22" fill="#4a4a52" stroke="#0d0d12" stroke-width="0.4"/>
<rect x="50" y="94" width="22" height="22" fill="#4a4a52" stroke="#0d0d12" stroke-width="0.4"/>
<rect x="72" y="94" width="22" height="22" fill="#4a4a52" stroke="#0d0d12" stroke-width="0.4"/>
<rect x="94" y="94" width="22" height="22" fill="#4a4a52" stroke="#0d0d12" stroke-width="0.4"/>
<rect x="116" y="94" width="22" height="22" fill="#4a4a52" stroke="#0d0d12" stroke-width="0.4"/>
<rect x="138" y="94" width="22" height="22" fill="#4a4a52" stroke="#0d0d12" stroke-width="0.4"/>
<rect x="160" y="94" width="22" height="22" fill="#4a4a52" stroke="#0d0d12" stroke-width="0.4"/>
<rect x="50" y="116" width="22" height="22" fill="#4a4a52" stroke="#0d0d12" stroke-width="0.4"/>
<rect x="72" y="116" width="22" height="22" fill="#4a4a52" stroke="#0d0d12" stroke-width="0.4"/>
<rect x="94" y="116" width="22" height="22" fill="#4a4a52" stroke="#0d0d12" stroke-width="0.4"/>
<rect x="116" y="116" width="22" height="22" fill="#4a4a52" stroke="#0d0d12" stroke-width="0.4"/>
<rect x="138" y="116" width="22" height="22" fill="#4a4a52" stroke="#0d0d12" stroke-width="0.4"/>
<rect x="160" y="116" width="22" height="22" fill="#4a4a52" stroke="#0d0d12" stroke-width="0.4"/>
<rect x="50" y="138" width="22" height="22" fill="#4a4a52" stroke="#0d0d12" stroke-width="0.4"/>
<rect x="72" y="138" width="22" height="22" fill="#4a4a52" stroke="#0d0d12" stroke-width="0.4"/>
<rect x="94" y="138" width="22" height="22" fill="#4a4a52" stroke="#0d0d12" stroke-width="0.4"/>
<rect x="116" y="138" width="22" height="22" fill="#4a4a52" stroke="#0d0d12" stroke-width="0.4"/>
<rect x="138" y="138" width="22" height="22" fill="#4a4a52" stroke="#0d0d12" stroke-width="0.4"/>
<rect x="160" y="138" width="22" height="22" fill="#4a4a52" stroke="#0d0d12" stroke-width="0.4"/>
<rect x="50" y="160" width="22" height="22" fill="#4a4a52" stroke="#0d0d12" stroke-width="0.4"/>
<rect x="72" y="160" width="22" height="22" fill="#4a4a52" stroke="#0d0d12" stroke-width="0.4"/>
<rect x="94" y="160" width="22" height="22" fill="#4a4a52" stroke="#0d0d12" stroke-width="0.4"/>
<rect x="116" y="160" width="22" height="22" fill="#4a4a52" stroke="#0d0d12" stroke-width="0.4"/>
<rect x="138" y="160" width="22" height="22" fill="#4a4a52" stroke="#0d0d12" stroke-width="0.4"/>
<rect x="160" y="160" width="22" height="22" fill="#4a4a52" stroke="#0d0d12" stroke-width="0.4"/>
<rect x="119.3" y="119.3" width="15.4" height="15.4" fill="#d23b6e" stroke="#fff" stroke-width="1" rx="2"/>
<text x="127.0" y="139.1" class="label">CircleSpiral</text>
<text class="subtitle" x="206" y="50">approach: south  exit: north</text>
<text class="subtitle" x="206" y="64">rotations: 0, 90, 180, 270</text>
<text class="subtitle" x="206" y="78">footprint: [4, 4, 1]</text>
<text class="subtitle" x="206" y="100">extras:</text>
</svg>