<svg xmlns="http://www.w3.org/2000/svg" width="364" height="400" viewBox="0 0 364 400" font-family="ui-sans-serif,system-ui,-apple-system,sans-serif">
<style>
.title{font-size:14px;font-weight:bold;fill:#eee}
.subtitle{font-size:10px;fill:#888}
.label{font-size:9px;fill:#bbb;text-anchor:middle;pointer-events:none}
.legend{font-size:9px;fill:#888}
</style>
<rect width="364" height="400" fill="#1a1a1f"/>
<text class="title" x="14" y="20">Selection Without Design — plan (top-down)</text>
<text class="subtitle" x="14" y="36">12×10 grid, looking down −Y</text>
<rect x="50" y="50" width="22" height="22" fill="#4a4a52" stroke="#0d0d12" stroke-width="0.4"/>
<rect x="72" y="50" width="22" height="22" fill="#4a4a52" stroke="#0d0d12" stroke-width="0.4"/>
<rect x="94" y="50" width="22" height="22" fill="#4a4a52" stroke="#0d0d12" stroke-width="0.4"/>
<rect x="116" y="50" width="22" height="22" fill="#3a3a42" stroke="#0d0d12" stroke-width="0.4"/>
<rect x="138" y="50" width="22" height="22" fill="#3a3a42" stroke="#0d0d12" stroke-width="0.4"/>
<rect x="160" y="50" width="22" height="22" fill="#3a3a42" stroke="#0d0d12" stroke-width="0.4"/>
<rect x="182" y="50" width="22" height="22" fill="#3a3a42" stroke="#0d0d12" stroke-width="0.4"/>
<rect x="204" y="50" width="22" height="22" fill="#3a3a42" stroke="#0d0d12" stroke-width="0.4"/>
<rect x="226" y="50" width="22" height="22" fill="#3a3a42" stroke="#0d0d12" stroke-width="0.4"/>
<rect x="248" y="50" width="22" height="22" fill="#3a3a42" stroke="#0d0d12" stroke-width="0.4"/>
<rect x="270" y="50" width="22" height="22" fill="#3a3a42" stroke="#0d0d12" stroke-width="0.4"/>
<rect x="292" y="50" width="22" height="22" fill="#2a2a32" stroke="#0d0d12" stroke-width="0.4"/>
<rect x="50" y="72" width="22" height="22" fill="#4a4a52" stroke="#0d0d12" stroke-width="0.4"/>
<rect x="72" y="72" width="22" height="22" fill="#4a4a52" stroke="#0d0d12" stroke-width="0.4"/>
<rect x="94" y="72" width="22" height="22" fill="#4a4a52" stroke="#0d0d12" stroke-width="0.4"/>
<rect x="116" y="72" width="22" height="22" fill="#3a3a42" stroke="#0d0d12" stroke-width="0.4"/>
<rect x="138" y="72" width="22" height="22" fill="#3a3a42" stroke="#0d0d12" stroke-width="0.4"/>
<rect x="160" y="72" width="22" height="22" fill="#3a3a42" stroke="#0d0d12" stroke-width="0.4"/>
<rect x="182" y="72" width="22" height="22" fill="#3a3a42" stroke="#0d0d12" stroke-width="0.4"/>
<rect x="204" y="72" width="22" height="22" fill="#3a3a42" stroke="#0d0d12" stroke-width="0.4"/>
<rect x="226" y="72" width="22" height="22" fill="#3a3a42" stroke="#0d0d12" stroke-width="0.4"/>
<rect x="248" y="72" width="22" height="22" fill="#3a3a42" stroke="#0d0d12" stroke-width="0.4"/>
<rect x="270" y="72" width="22" height="22" fill="#3a3a42" stroke="#0d0d12" stroke-width="0.4"/>
<rect x="292" y="72" width="22" height="22" fill="#2a2a32" stroke="#0d0d12" stroke-width="0.4"/>
<rect x="50" y="94" width="22" height="22" fill="#4a4a52" stroke="#0d0d12" stroke-width="0.4"/>
<rect x="72" y="94" width="22" height="22" fill="#4a4a52" stroke="#0d0d12" stroke-width="0.4"/>
<rect x="94" y="94" width="22" height="22" fill="#4a4a52" stroke="#0d0d12" stroke-width="0.4"/>
<rect x="116" y="94" width="22" height="22" fill="#3a3a42" stroke="#0d0d12" stroke-width="0.4"/>
<rect x="138" y="94" width="22" height="22" fill="#3a3a42" stroke="#0d0d12" stroke-width="0.4"/>
<rect x="160" y="94" width="22" height="22" fill="#3a3a42" stroke="#0d0d12" stroke-width="0.4"/>
<rect x="182" y="94" width="22" height="22" fill="#3a3a42" stroke="#0d0d12" stroke-width="0.4"/>
<rect x="204" y="94" width="22" height="22" fill="#3a3a42" stroke="#0d0d12" stroke-width="0.4"/>
<rect x="226" y="94" width="22" height="22" fill="#3a3a42" stroke="#0d0d12" stroke-width="0.4"/>
<rect x="248" y="94" width="22" height="22" fill="#3a3a42" stroke="#0d0d12" stroke-width="0.4"/>
<rect x="270" y="94" width="22" height="22" fill="#3a3a42" stroke="#0d0d12" stroke-width="0.4"/>
<rect x="292" y="94" width="22" height="22" fill="#2a2a32" stroke="#0d0d12" stroke-width="0.4"/>
<rect x="50" y="116" width="22" height="22" fill="#2a2a32" stroke="#0d0d12" stroke-width="0.4"/>
<rect x="72" y="116" width="22" height="22" fill="#3a3a42" stroke="#0d0d12" stroke-width="0.4"/>
<rect x="94" y="116" width="22" height="22" fill="#3a3a42" stroke="#0d0d12" stroke-width="0.4"/>
<rect x="116" y="116" width="22" height="22" fill="#3a3a42" stroke="#0d0d12" stroke-width="0.4"/>
<rect x="138" y="116" width="22" height="22" fill="#3a3a42" stroke="#0d0d12" stroke-width="0.4"/>
<rect x="160" y="116" width="22" height="22" fill="#3a3a42" stroke="#0d0d12" stroke-width="0.4"/>
<rect x="182" y="116" width="22" height="22" fill="#3a3a42" stroke="#0d0d12" stroke-width="0.4"/>
<rect x="204" y="116" width="22" height="22" fill="#3a3a42" stroke="#0d0d12" stroke-width="0.4"/>
<rect x="226" y="116" width="22" height="22" fill="#3a3a42" stroke="#0d0d12" stroke-width="0.4"/>
<rect x="248" y="116" width="22" height="22" fill="#3a3a42" stroke="#0d0d12" stroke-width="0.4"/>
<rect x="270" y="116" width="22" height="22" fill="#3a3a42" stroke="#0d0d12" stroke-width="0.4"/>
<rect x="292" y="116" width="22" height="22" fill="#2a2a32" stroke="#0d0d12" stroke-width="0.4"/>
<rect x="50" y="138" width="22" height="22" fill="#2a2a32" stroke="#0d0d12" stroke-width="0.4"/>
<rect x="72" y="138" width="22" height="22" fill="#3a3a42" stroke="#0d0d12" stroke-width="0.4"/>
<rect x="94" y="138" width="22" height="22" fill="#3a3a42" stroke="#0d0d12" stroke-width="0.4"/>
<rect x="116" y="138" width="22" height="22" fill="#3a3a42" stroke="#0d0d12" stroke-width="0.4"/>
<rect x="138" y="138" width="22" height="22" fill="#3a3a42" stroke="#0d0d12" stroke-width="0.4"/>
<rect x="160" y="138" width="22" height="22" fill="#3a3a42" stroke="#0d0d12" stroke-width="0.4"/>
<rect x="182" y="138" width="22" height="22" fill="#3a3a42" stroke="#0d0d12" stroke-width="0.4"/>
<rect x="204" y="138" width="22" height="22" fill="#3a3a42" stroke="#0d0d12" stroke-width="0.4"/>
<rect x="226" y="138" width="22" height="22" fill="#3a3a42" stroke="#0d0d12" stroke-width="0.4"/>
<rect x="248" y="138" width="22" height="22" fill="#3a3a42" stroke="#0d0d12" stroke-width="0.4"/>
<rect x="270" y="138" width="22" height="22" fill="#3a3a42" stroke="#0d0d12" stroke-width="0.4"/>
<rect x="292" y="138" width="22" height="22" fill="#2a2a32" stroke="#0d0d12" stroke-width="0.4"/>
<rect x="50" y="160" width="22" height="22" fill="#2a2a32" stroke="#0d0d12" stroke-width="0.4"/>
<rect x="72" y="160" width="22" height="22" fill="#3a3a42" stroke="#0d0d12" stroke-width="0.4"/>
<rect x="94" y="160" width="22" height="22" fill="#3a3a42" stroke="#0d0d12" stroke-width="0.4"/>
<rect x="116" y="160" width="22" height="22" fill="#3a3a42" stroke="#0d0d12" stroke-width="0.4"/>
<rect x="138" y="160" width="22" height="22" fill="#3a3a42" stroke="#0d0d12" stroke-width="0.4"/>
<rect x="160" y="160" width="22" height="22" fill="#3a3a42" stroke="#0d0d12" stroke-width="0.4"/>
<rect x="182" y="160" width="22" height="22" fill="#3a3a42" stroke="#0d0d12" stroke-width="0.4"/>
<rect x="204" y="160" width="22" height="22" fill="#3a3a42" stroke="#0d0d12" stroke-width="0.4"/>
<rect x="226" y="160" width="22" height="22" fill="#3a3a42" stroke="#0d0d12" stroke-width="0.4"/>
<rect x="248" y="160" width="22" height="22" fill="#3a3a42" stroke="#0d0d12" stroke-width="0.4"/>
<rect x="270" y="160" width="22" height="22" fill="#3a3a42" stroke="#0d0d12" stroke-width="0.4"/>
<rect x="292" y="160" width="22" height="22" fill="#2a2a32" stroke="#0d0d12" stroke-width="0.4"/>
<rect x="50" y="182" width="22" height="22" fill="#2a2a32" stroke="#0d0d12" stroke-width="0.4"/>
<rect x="72" y="182" width="22" height="22" fill="#3a3a42" stroke="#0d0d12" stroke-width="0.4"/>
<rect x="94" y="182" width="22" height="22" fill="#3a3a42" stroke="#0d0d12" stroke-width="0.4"/>
<rect x="116" y="182" width="22" height="22" fill="#3a3a42" stroke="#0d0d12" stroke-width="0.4"/>
<rect x="138" y="182" width="22" height="22" fill="#3a3a42" stroke="#0d0d12" stroke-width="0.4"/>
<rect x="160" y="182" width="22" height="22" fill="#3a3a42" stroke="#0d0d12" stroke-width="0.4"/>
<rect x="182" y="182" width="22" height="22" fill="#3a3a42" stroke="#0d0d12" stroke-width="0.4"/>
<rect x="204" y="182" width="22" height="22" fill="#3a3a42" stroke="#0d0d12" stroke-width="0.4"/>
<rect x="226" y="182" width="22" height="22" fill="#3a3a42" stroke="#0d0d12" stroke-width="0.4"/>
<rect x="248" y="182" width="22" height="22" fill="#3a3a42" stroke="#0d0d12" stroke-width="0.4"/>
<rect x="270" y="182" width="22" height="22" fill="#3a3a42" stroke="#0d0d12" stroke-width="0.4"/>
<rect x="292" y="182" width="22" height="22" fill="#2a2a32" stroke="#0d0d12" stroke-width="0.4"/>
<rect x="50" y="204" width="22" height="22" fill="#2a2a32" stroke="#0d0d12" stroke-width="0.4"/>
<rect x="72" y="204" width="22" height="22" fill="#3a3a42" stroke="#0d0d12" stroke-width="0.4"/>
<rect x="94" y="204" width="22" height="22" fill="#3a3a42" stroke="#0d0d12" stroke-width="0.4"/>
<rect x="116" y="204" width="22" height="22" fill="#3a3a42" stroke="#0d0d12" stroke-width="0.4"/>
<rect x="138" y="204" width="22" height="22" fill="#3a3a42" stroke="#0d0d12" stroke-width="0.4"/>
<rect x="160" y="204" width="22" height="22" fill="#3a3a42" stroke="#0d0d12" stroke-width="0.4"/>
<rect x="182" y="204" width="22" height="22" fill="#3a3a42" stroke="#0d0d12" stroke-width="0.4"/>
<rect x="204" y="204" width="22" height="22" fill="#3a3a42" stroke="#0d0d12" stroke-width="0.4"/>
<rect x="226" y="204" width="22" height="22" fill="#3a3a42" stroke="#0d0d12" stroke-width="0.4"/>
<rect x="248" y="204" width="22" height="22" fill="#4a4a52" stroke="#0d0d12" stroke-width="0.4"/>
<rect x="270" y="204" width="22" height="22" fill="#4a4a52" stroke="#0d0d12" stroke-width="0.4"/>
<rect x="292" y="204" width="22" height="22" fill="#4a4a52" stroke="#0d0d12" stroke-width="0.4"/>
<rect x="50" y="226" width="22" height="22" fill="#2a2a32" stroke="#0d0d12" stroke-width="0.4"/>
<rect x="72" y="226" width="22" height="22" fill="#2a2a32" stroke="#0d0d12" stroke-width="0.4"/>
<rect x="94" y="226" width="22" height="22" fill="#2a2a32" stroke="#0d0d12" stroke-width="0.4"/>
<rect x="116" y="226" width="22" height="22" fill="#3a3a42" stroke="#0d0d12" stroke-width="0.4"/>
<rect x="138" y="226" width="22" height="22" fill="#3a3a42" stroke="#0d0d12" stroke-width="0.4"/>
<rect x="160" y="226" width="22" height="22" fill="#3a3a42" stroke="#0d0d12" stroke-width="0.4"/>
<rect x="182" y="226" width="22" height="22" fill="#3a3a42" stroke="#0d0d12" stroke-width="0.4"/>
<rect x="204" y="226" width="22" height="22" fill="#3a3a42" stroke="#0d0d12" stroke-width="0.4"/>
<rect x="226" y="226" width="22" height="22" fill="#3a3a42" stroke="#0d0d12" stroke-width="0.4"/>
<rect x="248" y="226" width="22" height="22" fill="#4a4a52" stroke="#0d0d12" stroke-width="0.4"/>
<rect x="270" y="226" width="22" height="22" fill="#101015" stroke="#0d0d12" stroke-width="0.4"/>
<rect x="292" y="226" width="22" height="22" fill="#4a4a52" stroke="#0d0d12" stroke-width="0.4"/>
<rect x="50" y="248" width="22" height="22" fill="#2a2a32" stroke="#0d0d12" stroke-width="0.4"/>
<rect x="72" y="248" width="22" height="22" fill="#2a2a32" stroke="#0d0d12" stroke-width="0.4"/>
<rect x="94" y="248" width="22" height="22" fill="#2a2a32" stroke="#0d0d12" stroke-width="0.4"/>
<rect x="116" y="248" width="22" height="22" fill="#3a3a42" stroke="#0d0d12" stroke-width="0.4"/>
<rect x="138" y="248" width="22" height="22" fill="#3a3a42" stroke="#0d0d12" stroke-width="0.4"/>
<rect x="160" y="248" width="22" height="22" fill="#3a3a42" stroke="#0d0d12" stroke-width="0.4"/>
<rect x="182" y="248" width="22" height="22" fill="#3a3a42" stroke="#0d0d12" stroke-width="0.4"/>
<rect x="204" y="248" width="22" height="22" fill="#3a3a42" stroke="#0d0d12" stroke-width="0.4"/>
<rect x="226" y="248" width="22" height="22" fill="#3a3a42" stroke="#0d0d12" stroke-width="0.4"/>
<rect x="248" y="248" width="22" height="22" fill="#4a4a52" stroke="#0d0d12" stroke-width="0.4"/>
<rect x="270" y="248" width="22" height="22" fill="#4a4a52" stroke="#0d0d12" stroke-width="0.4"/>
<rect x="292" y="248" width="22" height="22" fill="#4a4a52" stroke="#0d0d12" stroke-width="0.4"/>
<line x1="61.0" y1="61.0" x2="281.0" y2="237.0" stroke="#6b6" stroke-width="1.3" stroke-dasharray="4 3" opacity="0.55"/>
<circle cx="61.0" cy="61.0" r="6" fill="#4ade80" stroke="#0d0d12" stroke-width="1"/>
<text x="70.0" y="64.0" font-size="9" fill="#4ade80">spawn</text>
<circle cx="281.0" cy="237.0" r="6" fill="#f87171" stroke="#0d0d12" stroke-width="1"/>
<text x="290.0" y="240.0" font-size="9" fill="#f87171">teleport</text>
<rect x="268.7" y="35.3" width="68.6" height="51.5" fill="#6b8a4a" stroke="#fff" stroke-width="0.6" opacity="0.92" rx="1.5"><title>science_screen
family: shaders
footprint: (4.0, 3.0, 1.0)</title></rect>
<text x="303.0" y="95.7" class="label">science_screen</text>
<rect x="92.7" y="74.4" width="68.6" height="17.2" fill="#3b6cb0" stroke="#fff" stroke-width="0.6" opacity="0.92" rx="1.5"><title>evolved_creatures
family: machinelearning
footprint: (40.0, 1.0, 40.0)</title></rect>
<text x="127.0" y="100.6" class="label">evolved_creatures</text>
<rect x="246.7" y="79.3" width="68.6" height="51.5" fill="#3b6cb0" stroke="#fff" stroke-width="0.6" opacity="0.92" rx="1.5"><title>evolvingflowers
family: machinelearning
footprint: (20.0, 3.0, 20.0)</title></rect>
<text x="281.0" y="139.7" class="label">evolvingflowers</text>
<rect x="65.8" y="131.8" width="34.3" height="34.3" fill="#3b6cb0" stroke="#fff" stroke-width="0.6" opacity="0.92" rx="1.5"><title>9_3_smart_rockets_vr
family: machinelearning
footprint: (2.0, 2.0, 2.0)</title></rect>
<text x="83.0" y="175.2" class="label">9_3_smart_rockets_</text>
<rect x="153.8" y="162.4" width="34.3" height="17.2" fill="#3b6cb0" stroke="#fff" stroke-width="0.6" opacity="0.92" rx="1.5"><title>non_teleological_evolution
family: machinelearning
footprint: (2.0, 1.0, 2.0)</title></rect>
<text x="171.0" y="188.6" class="label">non_teleological_e</text>
<rect x="65.8" y="175.8" width="34.3" height="34.3" fill="#3b6cb0" stroke="#fff" stroke-width="0.6" opacity="0.92" rx="1.5"><title>9_5_evolving_bloops_vr
family: machinelearning
footprint: (2.0, 2.0, 2.0)</title></rect>
<text x="83.0" y="219.2" class="label">9_5_evolving_bloop</text>
<rect x="92.7" y="180.7" width="68.6" height="68.6" fill="#7d7d7d" stroke="#fff" stroke-width="0.6" opacity="0.92" rx="1.5"><title>gradient_descent_visualization
family: algorithms_misc
footprint: (8.0, 5.0, 8.0)</title></rect>
<text x="127.0" y="258.3" class="label">gradient_descent_v</text>
<text class="subtitle" x="14" y="286">legend:</text>
<rect x="64" y="277" width="11" height="11" fill="#7d7d7d" stroke="#111" stroke-width="0.4"/>
<text x="78" y="286" class="legend">algorithms_misc</text>
<rect x="182" y="277" width="11" height="11" fill="#3b6cb0" stroke="#111" stroke-width="0.4"/>
<text x="196" y="286" class="legend">machinelearning</text>
<rect x="300" y="277" width="11" height="11" fill="#6b8a4a" stroke="#111" stroke-width="0.4"/>
<text x="314" y="286" class="legend">shaders</text>
</svg>