<svg xmlns="http://www.w3.org/2000/svg" width="514" height="904" viewBox="0 0 514 904" font-family="ui-sans-serif,system-ui,sans-serif">
<defs><marker id="ar" viewBox="0 0 10 10" refX="9" refY="5" markerWidth="5" markerHeight="5" orient="auto-start-end"><path d="M0,0 L10,5 L0,10 z" fill="#2e7d4f"/></marker>
<pattern id="hatch" width="6" height="6" patternTransform="rotate(45)" patternUnits="userSpaceOnUse"><line x1="0" y1="0" x2="0" y2="6" stroke="#c07a12" stroke-width="2"/></pattern></defs>
<rect width="100%%" height="100%%" fill="#fbfaf8"/>
<text x="75" y="26" font-size="15" font-weight="600" fill="#141820">Symmetry_Seventeen</text>
<text x="75" y="46" font-size="11" fill="#5b6472">the stamp proposed by tools/stamp.py — nothing here is applied</text>
<rect x="75" y="78" width="28" height="28" fill="#2b3038" stroke="#c9cdd4" stroke-width="0.7"/>
<text x="89" y="95" font-size="8" fill="#8d949e" text-anchor="middle">2</text>
<rect x="103" y="78" width="28" height="28" fill="#2b3038" stroke="#c9cdd4" stroke-width="0.7"/>
<text x="117" y="95" font-size="8" fill="#8d949e" text-anchor="middle">2</text>
<rect x="131" y="78" width="28" height="28" fill="#eef0f3" stroke="#c9cdd4" stroke-width="0.7"/>
<rect x="159" y="78" width="28" height="28" fill="#eef0f3" stroke="#c9cdd4" stroke-width="0.7"/>
<rect x="187" y="78" width="28" height="28" fill="#2b3038" stroke="#c9cdd4" stroke-width="0.7"/>
<text x="201" y="95" font-size="8" fill="#8d949e" text-anchor="middle">2</text>
<rect x="215" y="78" width="28" height="28" fill="#2b3038" stroke="#c9cdd4" stroke-width="0.7"/>
<text x="229" y="95" font-size="8" fill="#8d949e" text-anchor="middle">2</text>
<rect x="243" y="78" width="28" height="28" fill="#2b3038" stroke="#c9cdd4" stroke-width="0.7"/>
<text x="257" y="95" font-size="8" fill="#8d949e" text-anchor="middle">2</text>
<rect x="271" y="78" width="28" height="28" fill="#2b3038" stroke="#c9cdd4" stroke-width="0.7"/>
<text x="285" y="95" font-size="8" fill="#8d949e" text-anchor="middle">2</text>
<rect x="299" y="78" width="28" height="28" fill="#2b3038" stroke="#c9cdd4" stroke-width="0.7"/>
<text x="313" y="95" font-size="8" fill="#8d949e" text-anchor="middle">2</text>
<rect x="327" y="78" width="28" height="28" fill="#2b3038" stroke="#c9cdd4" stroke-width="0.7"/>
<text x="341" y="95" font-size="8" fill="#8d949e" text-anchor="middle">2</text>
<rect x="355" y="78" width="28" height="28" fill="#2b3038" stroke="#c9cdd4" stroke-width="0.7"/>
<text x="369" y="95" font-size="8" fill="#8d949e" text-anchor="middle">2</text>
<rect x="383" y="78" width="28" height="28" fill="#2b3038" stroke="#c9cdd4" stroke-width="0.7"/>
<text x="397" y="95" font-size="8" fill="#8d949e" text-anchor="middle">2</text>
<rect x="411" y="78" width="28" height="28" fill="#eef0f3" stroke="#c9cdd4" stroke-width="0.7"/>
<rect x="75" y="106" width="28" height="28" fill="#2b3038" stroke="#c9cdd4" stroke-width="0.7"/>
<text x="89" y="123" font-size="8" fill="#8d949e" text-anchor="middle">2</text>
<rect x="103" y="106" width="28" height="28" fill="#eef0f3" stroke="#c9cdd4" stroke-width="0.7"/>
<rect x="131" y="106" width="28" height="28" fill="#eef0f3" stroke="#c9cdd4" stroke-width="0.7"/>
<rect x="159" y="106" width="28" height="28" fill="#eef0f3" stroke="#c9cdd4" stroke-width="0.7"/>
<rect x="187" y="106" width="28" height="28" fill="#eef0f3" stroke="#c9cdd4" stroke-width="0.7"/>
<rect x="215" y="106" width="28" height="28" fill="#eef0f3" stroke="#c9cdd4" stroke-width="0.7"/>
<rect x="243" y="106" width="28" height="28" fill="#eef0f3" stroke="#c9cdd4" stroke-width="0.7"/>
<rect x="271" y="106" width="28" height="28" fill="#eef0f3" stroke="#c9cdd4" stroke-width="0.7"/>
<rect x="299" y="106" width="28" height="28" fill="#eef0f3" stroke="#c9cdd4" stroke-width="0.7"/>
<rect x="327" y="106" width="28" height="28" fill="#eef0f3" stroke="#c9cdd4" stroke-width="0.7"/>
<rect x="355" y="106" width="28" height="28" fill="#eef0f3" stroke="#c9cdd4" stroke-width="0.7"/>
<rect x="383" y="106" width="28" height="28" fill="#2b3038" stroke="#c9cdd4" stroke-width="0.7"/>
<text x="397" y="123" font-size="8" fill="#8d949e" text-anchor="middle">2</text>
<rect x="411" y="106" width="28" height="28" fill="#eef0f3" stroke="#c9cdd4" stroke-width="0.7"/>
<rect x="75" y="134" width="28" height="28" fill="#2b3038" stroke="#c9cdd4" stroke-width="0.7"/>
<text x="89" y="151" font-size="8" fill="#8d949e" text-anchor="middle">2</text>
<rect x="103" y="134" width="28" height="28" fill="#eef0f3" stroke="#c9cdd4" stroke-width="0.7"/>
<rect x="131" y="134" width="28" height="28" fill="#eef0f3" stroke="#c9cdd4" stroke-width="0.7"/>
<rect x="159" y="134" width="28" height="28" fill="#eef0f3" stroke="#c9cdd4" stroke-width="0.7"/>
<rect x="187" y="134" width="28" height="28" fill="#eef0f3" stroke="#c9cdd4" stroke-width="0.7"/>
<rect x="215" y="134" width="28" height="28" fill="#eef0f3" stroke="#c9cdd4" stroke-width="0.7"/>
<rect x="243" y="134" width="28" height="28" fill="#eef0f3" stroke="#c9cdd4" stroke-width="0.7"/>
<rect x="271" y="134" width="28" height="28" fill="#eef0f3" stroke="#c9cdd4" stroke-width="0.7"/>
<rect x="299" y="134" width="28" height="28" fill="#eef0f3" stroke="#c9cdd4" stroke-width="0.7"/>
<rect x="327" y="134" width="28" height="28" fill="#eef0f3" stroke="#c9cdd4" stroke-width="0.7"/>
<rect x="355" y="134" width="28" height="28" fill="#eef0f3" stroke="#c9cdd4" stroke-width="0.7"/>
<rect x="383" y="134" width="28" height="28" fill="#2b3038" stroke="#c9cdd4" stroke-width="0.7"/>
<text x="397" y="151" font-size="8" fill="#8d949e" text-anchor="middle">2</text>
<rect x="411" y="134" width="28" height="28" fill="#eef0f3" stroke="#c9cdd4" stroke-width="0.7"/>
<rect x="75" y="162" width="28" height="28" fill="#2b3038" stroke="#c9cdd4" stroke-width="0.7"/>
<text x="89" y="179" font-size="8" fill="#8d949e" text-anchor="middle">2</text>
<rect x="103" y="162" width="28" height="28" fill="#2b3038" stroke="#c9cdd4" stroke-width="0.7"/>
<text x="117" y="179" font-size="8" fill="#8d949e" text-anchor="middle">2</text>
<rect x="131" y="162" width="28" height="28" fill="#2b3038" stroke="#c9cdd4" stroke-width="0.7"/>
<text x="145" y="179" font-size="8" fill="#8d949e" text-anchor="middle">2</text>
<rect x="159" y="162" width="28" height="28" fill="#eef0f3" stroke="#c9cdd4" stroke-width="0.7"/>
<rect x="187" y="162" width="28" height="28" fill="#2b3038" stroke="#c9cdd4" stroke-width="0.7"/>
<text x="201" y="179" font-size="8" fill="#8d949e" text-anchor="middle">2</text>
<rect x="215" y="162" width="28" height="28" fill="#2b3038" stroke="#c9cdd4" stroke-width="0.7"/>
<text x="229" y="179" font-size="8" fill="#8d949e" text-anchor="middle">2</text>
<rect x="243" y="162" width="28" height="28" fill="#2b3038" stroke="#c9cdd4" stroke-width="0.7"/>
<text x="257" y="179" font-size="8" fill="#8d949e" text-anchor="middle">2</text>
<rect x="271" y="162" width="28" height="28" fill="#2b3038" stroke="#c9cdd4" stroke-width="0.7"/>
<text x="285" y="179" font-size="8" fill="#8d949e" text-anchor="middle">2</text>
<rect x="299" y="162" width="28" height="28" fill="#2b3038" stroke="#c9cdd4" stroke-width="0.7"/>
<text x="313" y="179" font-size="8" fill="#8d949e" text-anchor="middle">2</text>
<rect x="327" y="162" width="28" height="28" fill="#eef0f3" stroke="#c9cdd4" stroke-width="0.7"/>
<rect x="355" y="162" width="28" height="28" fill="#eef0f3" stroke="#c9cdd4" stroke-width="0.7"/>
<rect x="383" y="162" width="28" height="28" fill="#2b3038" stroke="#c9cdd4" stroke-width="0.7"/>
<text x="397" y="179" font-size="8" fill="#8d949e" text-anchor="middle">2</text>
<rect x="411" y="162" width="28" height="28" fill="#eef0f3" stroke="#c9cdd4" stroke-width="0.7"/>
<rect x="75" y="190" width="28" height="28" fill="#2b3038" stroke="#c9cdd4" stroke-width="0.7"/>
<text x="89" y="207" font-size="8" fill="#8d949e" text-anchor="middle">2</text>
<rect x="103" y="190" width="28" height="28" fill="#eef0f3" stroke="#c9cdd4" stroke-width="0.7"/>
<rect x="131" y="190" width="28" height="28" fill="#eef0f3" stroke="#c9cdd4" stroke-width="0.7"/>
<rect x="159" y="190" width="28" height="28" fill="#eef0f3" stroke="#c9cdd4" stroke-width="0.7"/>
<rect x="187" y="190" width="28" height="28" fill="#eef0f3" stroke="#c9cdd4" stroke-width="0.7"/>
<rect x="215" y="190" width="28" height="28" fill="#eef0f3" stroke="#c9cdd4" stroke-width="0.7"/>
<rect x="243" y="190" width="28" height="28" fill="#eef0f3" stroke="#c9cdd4" stroke-width="0.7"/>
<rect x="271" y="190" width="28" height="28" fill="#eef0f3" stroke="#c9cdd4" stroke-width="0.7"/>
<rect x="299" y="190" width="28" height="28" fill="#eef0f3" stroke="#c9cdd4" stroke-width="0.7"/>
<rect x="327" y="190" width="28" height="28" fill="#eef0f3" stroke="#c9cdd4" stroke-width="0.7"/>
<rect x="355" y="190" width="28" height="28" fill="#eef0f3" stroke="#c9cdd4" stroke-width="0.7"/>
<rect x="383" y="190" width="28" height="28" fill="#2b3038" stroke="#c9cdd4" stroke-width="0.7"/>
<text x="397" y="207" font-size="8" fill="#8d949e" text-anchor="middle">2</text>
<rect x="411" y="190" width="28" height="28" fill="#eef0f3" stroke="#c9cdd4" stroke-width="0.7"/>
<rect x="75" y="218" width="28" height="28" fill="#2b3038" stroke="#c9cdd4" stroke-width="0.7"/>
<text x="89" y="235" font-size="8" fill="#8d949e" text-anchor="middle">2</text>
<rect x="103" y="218" width="28" height="28" fill="#eef0f3" stroke="#c9cdd4" stroke-width="0.7"/>
<rect x="131" y="218" width="28" height="28" fill="#eef0f3" stroke="#c9cdd4" stroke-width="0.7"/>
<rect x="159" y="218" width="28" height="28" fill="#eef0f3" stroke="#c9cdd4" stroke-width="0.7"/>
<rect x="187" y="218" width="28" height="28" fill="#eef0f3" stroke="#c9cdd4" stroke-width="0.7"/>
<rect x="215" y="218" width="28" height="28" fill="#eef0f3" stroke="#c9cdd4" stroke-width="0.7"/>
<rect x="243" y="218" width="28" height="28" fill="#eef0f3" stroke="#c9cdd4" stroke-width="0.7"/>
<rect x="271" y="218" width="28" height="28" fill="#eef0f3" stroke="#c9cdd4" stroke-width="0.7"/>
<rect x="299" y="218" width="28" height="28" fill="#eef0f3" stroke="#c9cdd4" stroke-width="0.7"/>
<rect x="327" y="218" width="28" height="28" fill="#eef0f3" stroke="#c9cdd4" stroke-width="0.7"/>
<rect x="355" y="218" width="28" height="28" fill="#eef0f3" stroke="#c9cdd4" stroke-width="0.7"/>
<rect x="383" y="218" width="28" height="28" fill="#2b3038" stroke="#c9cdd4" stroke-width="0.7"/>
<text x="397" y="235" font-size="8" fill="#8d949e" text-anchor="middle">2</text>
<rect x="411" y="218" width="28" height="28" fill="#eef0f3" stroke="#c9cdd4" stroke-width="0.7"/>
<rect x="75" y="246" width="28" height="28" fill="#2b3038" stroke="#c9cdd4" stroke-width="0.7"/>
<text x="89" y="263" font-size="8" fill="#8d949e" text-anchor="middle">2</text>
<rect x="103" y="246" width="28" height="28" fill="#eef0f3" stroke="#c9cdd4" stroke-width="0.7"/>
<rect x="131" y="246" width="28" height="28" fill="#eef0f3" stroke="#c9cdd4" stroke-width="0.7"/>
<rect x="159" y="246" width="28" height="28" fill="#eef0f3" stroke="#c9cdd4" stroke-width="0.7"/>
<rect x="187" y="246" width="28" height="28" fill="#eef0f3" stroke="#c9cdd4" stroke-width="0.7"/>
<rect x="215" y="246" width="28" height="28" fill="#eef0f3" stroke="#c9cdd4" stroke-width="0.7"/>
<rect x="243" y="246" width="28" height="28" fill="#eef0f3" stroke="#c9cdd4" stroke-width="0.7"/>
<rect x="271" y="246" width="28" height="28" fill="#eef0f3" stroke="#c9cdd4" stroke-width="0.7"/>
<rect x="299" y="246" width="28" height="28" fill="#eef0f3" stroke="#c9cdd4" stroke-width="0.7"/>
<rect x="327" y="246" width="28" height="28" fill="#eef0f3" stroke="#c9cdd4" stroke-width="0.7"/>
<rect x="355" y="246" width="28" height="28" fill="#eef0f3" stroke="#c9cdd4" stroke-width="0.7"/>
<rect x="383" y="246" width="28" height="28" fill="#2b3038" stroke="#c9cdd4" stroke-width="0.7"/>
<text x="397" y="263" font-size="8" fill="#8d949e" text-anchor="middle">2</text>
<rect x="411" y="246" width="28" height="28" fill="#eef0f3" stroke="#c9cdd4" stroke-width="0.7"/>
<rect x="75" y="274" width="28" height="28" fill="#2b3038" stroke="#c9cdd4" stroke-width="0.7"/>
<text x="89" y="291" font-size="8" fill="#8d949e" text-anchor="middle">2</text>
<rect x="103" y="274" width="28" height="28" fill="#eef0f3" stroke="#c9cdd4" stroke-width="0.7"/>
<rect x="131" y="274" width="28" height="28" fill="#eef0f3" stroke="#c9cdd4" stroke-width="0.7"/>
<rect x="159" y="274" width="28" height="28" fill="#2b3038" stroke="#c9cdd4" stroke-width="0.7"/>
<text x="173" y="291" font-size="8" fill="#8d949e" text-anchor="middle">2</text>
<rect x="187" y="274" width="28" height="28" fill="#2b3038" stroke="#c9cdd4" stroke-width="0.7"/>
<text x="201" y="291" font-size="8" fill="#8d949e" text-anchor="middle">2</text>
<rect x="215" y="274" width="28" height="28" fill="#2b3038" stroke="#c9cdd4" stroke-width="0.7"/>
<text x="229" y="291" font-size="8" fill="#8d949e" text-anchor="middle">2</text>
<rect x="243" y="274" width="28" height="28" fill="#2b3038" stroke="#c9cdd4" stroke-width="0.7"/>
<text x="257" y="291" font-size="8" fill="#8d949e" text-anchor="middle">2</text>
<rect x="271" y="274" width="28" height="28" fill="#eef0f3" stroke="#c9cdd4" stroke-width="0.7"/>
<rect x="299" y="274" width="28" height="28" fill="#2b3038" stroke="#c9cdd4" stroke-width="0.7"/>
<text x="313" y="291" font-size="8" fill="#8d949e" text-anchor="middle">2</text>
<rect x="327" y="274" width="28" height="28" fill="#2b3038" stroke="#c9cdd4" stroke-width="0.7"/>
<text x="341" y="291" font-size="8" fill="#8d949e" text-anchor="middle">2</text>
<rect x="355" y="274" width="28" height="28" fill="#2b3038" stroke="#c9cdd4" stroke-width="0.7"/>
<text x="369" y="291" font-size="8" fill="#8d949e" text-anchor="middle">2</text>
<rect x="383" y="274" width="28" height="28" fill="#2b3038" stroke="#c9cdd4" stroke-width="0.7"/>
<text x="397" y="291" font-size="8" fill="#8d949e" text-anchor="middle">2</text>
<rect x="411" y="274" width="28" height="28" fill="#eef0f3" stroke="#c9cdd4" stroke-width="0.7"/>
<rect x="75" y="302" width="28" height="28" fill="#2b3038" stroke="#c9cdd4" stroke-width="0.7"/>
<text x="89" y="319" font-size="8" fill="#8d949e" text-anchor="middle">2</text>
<rect x="103" y="302" width="28" height="28" fill="#eef0f3" stroke="#c9cdd4" stroke-width="0.7"/>
<rect x="131" y="302" width="28" height="28" fill="#eef0f3" stroke="#c9cdd4" stroke-width="0.7"/>
<rect x="159" y="302" width="28" height="28" fill="#eef0f3" stroke="#c9cdd4" stroke-width="0.7"/>
<rect x="187" y="302" width="28" height="28" fill="#eef0f3" stroke="#c9cdd4" stroke-width="0.7"/>
<rect x="215" y="302" width="28" height="28" fill="#eef0f3" stroke="#c9cdd4" stroke-width="0.7"/>
<rect x="243" y="302" width="28" height="28" fill="#eef0f3" stroke="#c9cdd4" stroke-width="0.7"/>
<rect x="271" y="302" width="28" height="28" fill="#eef0f3" stroke="#c9cdd4" stroke-width="0.7"/>
<rect x="299" y="302" width="28" height="28" fill="#eef0f3" stroke="#c9cdd4" stroke-width="0.7"/>
<rect x="327" y="302" width="28" height="28" fill="#eef0f3" stroke="#c9cdd4" stroke-width="0.7"/>
<rect x="355" y="302" width="28" height="28" fill="#eef0f3" stroke="#c9cdd4" stroke-width="0.7"/>
<rect x="383" y="302" width="28" height="28" fill="#2b3038" stroke="#c9cdd4" stroke-width="0.7"/>
<text x="397" y="319" font-size="8" fill="#8d949e" text-anchor="middle">2</text>
<rect x="411" y="302" width="28" height="28" fill="#eef0f3" stroke="#c9cdd4" stroke-width="0.7"/>
<rect x="75" y="330" width="28" height="28" fill="#2b3038" stroke="#c9cdd4" stroke-width="0.7"/>
<text x="89" y="347" font-size="8" fill="#8d949e" text-anchor="middle">2</text>
<rect x="103" y="330" width="28" height="28" fill="#eef0f3" stroke="#c9cdd4" stroke-width="0.7"/>
<rect x="131" y="330" width="28" height="28" fill="#eef0f3" stroke="#c9cdd4" stroke-width="0.7"/>
<rect x="159" y="330" width="28" height="28" fill="#eef0f3" stroke="#c9cdd4" stroke-width="0.7"/>
<rect x="187" y="330" width="28" height="28" fill="#eef0f3" stroke="#c9cdd4" stroke-width="0.7"/>
<rect x="215" y="330" width="28" height="28" fill="#eef0f3" stroke="#c9cdd4" stroke-width="0.7"/>
<rect x="243" y="330" width="28" height="28" fill="#eef0f3" stroke="#c9cdd4" stroke-width="0.7"/>
<rect x="271" y="330" width="28" height="28" fill="#eef0f3" stroke="#c9cdd4" stroke-width="0.7"/>
<rect x="299" y="330" width="28" height="28" fill="#eef0f3" stroke="#c9cdd4" stroke-width="0.7"/>
<rect x="327" y="330" width="28" height="28" fill="#eef0f3" stroke="#c9cdd4" stroke-width="0.7"/>
<rect x="355" y="330" width="28" height="28" fill="#eef0f3" stroke="#c9cdd4" stroke-width="0.7"/>
<rect x="383" y="330" width="28" height="28" fill="#2b3038" stroke="#c9cdd4" stroke-width="0.7"/>
<text x="397" y="347" font-size="8" fill="#8d949e" text-anchor="middle">2</text>
<rect x="411" y="330" width="28" height="28" fill="#eef0f3" stroke="#c9cdd4" stroke-width="0.7"/>
<rect x="75" y="358" width="28" height="28" fill="#2b3038" stroke="#c9cdd4" stroke-width="0.7"/>
<text x="89" y="375" font-size="8" fill="#8d949e" text-anchor="middle">2</text>
<rect x="103" y="358" width="28" height="28" fill="#eef0f3" stroke="#c9cdd4" stroke-width="0.7"/>
<rect x="131" y="358" width="28" height="28" fill="#eef0f3" stroke="#c9cdd4" stroke-width="0.7"/>
<rect x="159" y="358" width="28" height="28" fill="#eef0f3" stroke="#c9cdd4" stroke-width="0.7"/>
<rect x="187" y="358" width="28" height="28" fill="#eef0f3" stroke="#c9cdd4" stroke-width="0.7"/>
<rect x="215" y="358" width="28" height="28" fill="#eef0f3" stroke="#c9cdd4" stroke-width="0.7"/>
<rect x="243" y="358" width="28" height="28" fill="#eef0f3" stroke="#c9cdd4" stroke-width="0.7"/>
<rect x="271" y="358" width="28" height="28" fill="#eef0f3" stroke="#c9cdd4" stroke-width="0.7"/>
<rect x="299" y="358" width="28" height="28" fill="#eef0f3" stroke="#c9cdd4" stroke-width="0.7"/>
<rect x="327" y="358" width="28" height="28" fill="#eef0f3" stroke="#c9cdd4" stroke-width="0.7"/>
<rect x="355" y="358" width="28" height="28" fill="#eef0f3" stroke="#c9cdd4" stroke-width="0.7"/>
<rect x="383" y="358" width="28" height="28" fill="#2b3038" stroke="#c9cdd4" stroke-width="0.7"/>
<text x="397" y="375" font-size="8" fill="#8d949e" text-anchor="middle">2</text>
<rect x="411" y="358" width="28" height="28" fill="#eef0f3" stroke="#c9cdd4" stroke-width="0.7"/>
<rect x="75" y="386" width="28" height="28" fill="#2b3038" stroke="#c9cdd4" stroke-width="0.7"/>
<text x="89" y="403" font-size="8" fill="#8d949e" text-anchor="middle">2</text>
<rect x="103" y="386" width="28" height="28" fill="#2b3038" stroke="#c9cdd4" stroke-width="0.7"/>
<text x="117" y="403" font-size="8" fill="#8d949e" text-anchor="middle">2</text>
<rect x="131" y="386" width="28" height="28" fill="#2b3038" stroke="#c9cdd4" stroke-width="0.7"/>
<text x="145" y="403" font-size="8" fill="#8d949e" text-anchor="middle">2</text>
<rect x="159" y="386" width="28" height="28" fill="#eef0f3" stroke="#c9cdd4" stroke-width="0.7"/>
<rect x="187" y="386" width="28" height="28" fill="#2b3038" stroke="#c9cdd4" stroke-width="0.7"/>
<text x="201" y="403" font-size="8" fill="#8d949e" text-anchor="middle">2</text>
<rect x="215" y="386" width="28" height="28" fill="#2b3038" stroke="#c9cdd4" stroke-width="0.7"/>
<text x="229" y="403" font-size="8" fill="#8d949e" text-anchor="middle">2</text>
<rect x="243" y="386" width="28" height="28" fill="#2b3038" stroke="#c9cdd4" stroke-width="0.7"/>
<text x="257" y="403" font-size="8" fill="#8d949e" text-anchor="middle">2</text>
<rect x="271" y="386" width="28" height="28" fill="#2b3038" stroke="#c9cdd4" stroke-width="0.7"/>
<text x="285" y="403" font-size="8" fill="#8d949e" text-anchor="middle">2</text>
<rect x="299" y="386" width="28" height="28" fill="#2b3038" stroke="#c9cdd4" stroke-width="0.7"/>
<text x="313" y="403" font-size="8" fill="#8d949e" text-anchor="middle">2</text>
<rect x="327" y="386" width="28" height="28" fill="#eef0f3" stroke="#c9cdd4" stroke-width="0.7"/>
<rect x="355" y="386" width="28" height="28" fill="#2b3038" stroke="#c9cdd4" stroke-width="0.7"/>
<text x="369" y="403" font-size="8" fill="#8d949e" text-anchor="middle">2</text>
<rect x="383" y="386" width="28" height="28" fill="#2b3038" stroke="#c9cdd4" stroke-width="0.7"/>
<text x="397" y="403" font-size="8" fill="#8d949e" text-anchor="middle">2</text>
<rect x="411" y="386" width="28" height="28" fill="#eef0f3" stroke="#c9cdd4" stroke-width="0.7"/>
<rect x="75" y="414" width="28" height="28" fill="#2b3038" stroke="#c9cdd4" stroke-width="0.7"/>
<text x="89" y="431" font-size="8" fill="#8d949e" text-anchor="middle">2</text>
<rect x="103" y="414" width="28" height="28" fill="#eef0f3" stroke="#c9cdd4" stroke-width="0.7"/>
<rect x="131" y="414" width="28" height="28" fill="#eef0f3" stroke="#c9cdd4" stroke-width="0.7"/>
<rect x="159" y="414" width="28" height="28" fill="#eef0f3" stroke="#c9cdd4" stroke-width="0.7"/>
<rect x="187" y="414" width="28" height="28" fill="#eef0f3" stroke="#c9cdd4" stroke-width="0.7"/>
<rect x="215" y="414" width="28" height="28" fill="#eef0f3" stroke="#c9cdd4" stroke-width="0.7"/>
<rect x="243" y="414" width="28" height="28" fill="#eef0f3" stroke="#c9cdd4" stroke-width="0.7"/>
<rect x="271" y="414" width="28" height="28" fill="#eef0f3" stroke="#c9cdd4" stroke-width="0.7"/>
<rect x="299" y="414" width="28" height="28" fill="#eef0f3" stroke="#c9cdd4" stroke-width="0.7"/>
<rect x="327" y="414" width="28" height="28" fill="#eef0f3" stroke="#c9cdd4" stroke-width="0.7"/>
<rect x="355" y="414" width="28" height="28" fill="#2b3038" stroke="#c9cdd4" stroke-width="0.7"/>
<text x="369" y="431" font-size="8" fill="#8d949e" text-anchor="middle">2</text>
<rect x="383" y="414" width="28" height="28" fill="#2b3038" stroke="#c9cdd4" stroke-width="0.7"/>
<text x="397" y="431" font-size="8" fill="#8d949e" text-anchor="middle">2</text>
<rect x="411" y="414" width="28" height="28" fill="#eef0f3" stroke="#c9cdd4" stroke-width="0.7"/>
<rect x="75" y="442" width="28" height="28" fill="#2b3038" stroke="#c9cdd4" stroke-width="0.7"/>
<text x="89" y="459" font-size="8" fill="#8d949e" text-anchor="middle">2</text>
<rect x="103" y="442" width="28" height="28" fill="#eef0f3" stroke="#c9cdd4" stroke-width="0.7"/>
<rect x="131" y="442" width="28" height="28" fill="#eef0f3" stroke="#c9cdd4" stroke-width="0.7"/>
<rect x="159" y="442" width="28" height="28" fill="#eef0f3" stroke="#c9cdd4" stroke-width="0.7"/>
<rect x="187" y="442" width="28" height="28" fill="#eef0f3" stroke="#c9cdd4" stroke-width="0.7"/>
<rect x="215" y="442" width="28" height="28" fill="#eef0f3" stroke="#c9cdd4" stroke-width="0.7"/>
<rect x="243" y="442" width="28" height="28" fill="#eef0f3" stroke="#c9cdd4" stroke-width="0.7"/>
<rect x="271" y="442" width="28" height="28" fill="#eef0f3" stroke="#c9cdd4" stroke-width="0.7"/>
<rect x="299" y="442" width="28" height="28" fill="#eef0f3" stroke="#c9cdd4" stroke-width="0.7"/>
<rect x="327" y="442" width="28" height="28" fill="#eef0f3" stroke="#c9cdd4" stroke-width="0.7"/>
<rect x="355" y="442" width="28" height="28" fill="#eef0f3" stroke="#c9cdd4" stroke-width="0.7"/>
<rect x="383" y="442" width="28" height="28" fill="#2b3038" stroke="#c9cdd4" stroke-width="0.7"/>
<text x="397" y="459" font-size="8" fill="#8d949e" text-anchor="middle">2</text>
<rect x="411" y="442" width="28" height="28" fill="#eef0f3" stroke="#c9cdd4" stroke-width="0.7"/>
<rect x="75" y="470" width="28" height="28" fill="#2b3038" stroke="#c9cdd4" stroke-width="0.7"/>
<text x="89" y="487" font-size="8" fill="#8d949e" text-anchor="middle">2</text>
<rect x="103" y="470" width="28" height="28" fill="#eef0f3" stroke="#c9cdd4" stroke-width="0.7"/>
<rect x="131" y="470" width="28" height="28" fill="#eef0f3" stroke="#c9cdd4" stroke-width="0.7"/>
<rect x="159" y="470" width="28" height="28" fill="#eef0f3" stroke="#c9cdd4" stroke-width="0.7"/>
<rect x="187" y="470" width="28" height="28" fill="#eef0f3" stroke="#c9cdd4" stroke-width="0.7"/>
<rect x="215" y="470" width="28" height="28" fill="#eef0f3" stroke="#c9cdd4" stroke-width="0.7"/>
<rect x="243" y="470" width="28" height="28" fill="#eef0f3" stroke="#c9cdd4" stroke-width="0.7"/>
<rect x="271" y="470" width="28" height="28" fill="#eef0f3" stroke="#c9cdd4" stroke-width="0.7"/>
<rect x="299" y="470" width="28" height="28" fill="#eef0f3" stroke="#c9cdd4" stroke-width="0.7"/>
<rect x="327" y="470" width="28" height="28" fill="#eef0f3" stroke="#c9cdd4" stroke-width="0.7"/>
<rect x="355" y="470" width="28" height="28" fill="#eef0f3" stroke="#c9cdd4" stroke-width="0.7"/>
<rect x="383" y="470" width="28" height="28" fill="#2b3038" stroke="#c9cdd4" stroke-width="0.7"/>
<text x="397" y="487" font-size="8" fill="#8d949e" text-anchor="middle">2</text>
<rect x="411" y="470" width="28" height="28" fill="#eef0f3" stroke="#c9cdd4" stroke-width="0.7"/>
<rect x="75" y="498" width="28" height="28" fill="#2b3038" stroke="#c9cdd4" stroke-width="0.7"/>
<text x="89" y="515" font-size="8" fill="#8d949e" text-anchor="middle">2</text>
<rect x="103" y="498" width="28" height="28" fill="#eef0f3" stroke="#c9cdd4" stroke-width="0.7"/>
<rect x="131" y="498" width="28" height="28" fill="#eef0f3" stroke="#c9cdd4" stroke-width="0.7"/>
<rect x="159" y="498" width="28" height="28" fill="#2b3038" stroke="#c9cdd4" stroke-width="0.7"/>
<text x="173" y="515" font-size="8" fill="#8d949e" text-anchor="middle">2</text>
<rect x="187" y="498" width="28" height="28" fill="#2b3038" stroke="#c9cdd4" stroke-width="0.7"/>
<text x="201" y="515" font-size="8" fill="#8d949e" text-anchor="middle">2</text>
<rect x="215" y="498" width="28" height="28" fill="#2b3038" stroke="#c9cdd4" stroke-width="0.7"/>
<text x="229" y="515" font-size="8" fill="#8d949e" text-anchor="middle">2</text>
<rect x="243" y="498" width="28" height="28" fill="#2b3038" stroke="#c9cdd4" stroke-width="0.7"/>
<text x="257" y="515" font-size="8" fill="#8d949e" text-anchor="middle">2</text>
<rect x="271" y="498" width="28" height="28" fill="#eef0f3" stroke="#c9cdd4" stroke-width="0.7"/>
<rect x="299" y="498" width="28" height="28" fill="#2b3038" stroke="#c9cdd4" stroke-width="0.7"/>
<text x="313" y="515" font-size="8" fill="#8d949e" text-anchor="middle">2</text>
<rect x="327" y="498" width="28" height="28" fill="#2b3038" stroke="#c9cdd4" stroke-width="0.7"/>
<text x="341" y="515" font-size="8" fill="#8d949e" text-anchor="middle">2</text>
<rect x="355" y="498" width="28" height="28" fill="#2b3038" stroke="#c9cdd4" stroke-width="0.7"/>
<text x="369" y="515" font-size="8" fill="#8d949e" text-anchor="middle">2</text>
<rect x="383" y="498" width="28" height="28" fill="#2b3038" stroke="#c9cdd4" stroke-width="0.7"/>
<text x="397" y="515" font-size="8" fill="#8d949e" text-anchor="middle">2</text>
<rect x="411" y="498" width="28" height="28" fill="#eef0f3" stroke="#c9cdd4" stroke-width="0.7"/>
<rect x="75" y="526" width="28" height="28" fill="#2b3038" stroke="#c9cdd4" stroke-width="0.7"/>
<text x="89" y="543" font-size="8" fill="#8d949e" text-anchor="middle">2</text>
<rect x="103" y="526" width="28" height="28" fill="#eef0f3" stroke="#c9cdd4" stroke-width="0.7"/>
<rect x="131" y="526" width="28" height="28" fill="#eef0f3" stroke="#c9cdd4" stroke-width="0.7"/>
<rect x="159" y="526" width="28" height="28" fill="#eef0f3" stroke="#c9cdd4" stroke-width="0.7"/>
<rect x="187" y="526" width="28" height="28" fill="#eef0f3" stroke="#c9cdd4" stroke-width="0.7"/>
<rect x="215" y="526" width="28" height="28" fill="#eef0f3" stroke="#c9cdd4" stroke-width="0.7"/>
<rect x="243" y="526" width="28" height="28" fill="#eef0f3" stroke="#c9cdd4" stroke-width="0.7"/>
<rect x="271" y="526" width="28" height="28" fill="#eef0f3" stroke="#c9cdd4" stroke-width="0.7"/>
<rect x="299" y="526" width="28" height="28" fill="#eef0f3" stroke="#c9cdd4" stroke-width="0.7"/>
<rect x="327" y="526" width="28" height="28" fill="#eef0f3" stroke="#c9cdd4" stroke-width="0.7"/>
<rect x="355" y="526" width="28" height="28" fill="#eef0f3" stroke="#c9cdd4" stroke-width="0.7"/>
<rect x="383" y="526" width="28" height="28" fill="#2b3038" stroke="#c9cdd4" stroke-width="0.7"/>
<text x="397" y="543" font-size="8" fill="#8d949e" text-anchor="middle">2</text>
<rect x="411" y="526" width="28" height="28" fill="#eef0f3" stroke="#c9cdd4" stroke-width="0.7"/>
<rect x="75" y="554" width="28" height="28" fill="#2b3038" stroke="#c9cdd4" stroke-width="0.7"/>
<text x="89" y="571" font-size="8" fill="#8d949e" text-anchor="middle">2</text>
<rect x="103" y="554" width="28" height="28" fill="#eef0f3" stroke="#c9cdd4" stroke-width="0.7"/>
<rect x="131" y="554" width="28" height="28" fill="#eef0f3" stroke="#c9cdd4" stroke-width="0.7"/>
<rect x="159" y="554" width="28" height="28" fill="#eef0f3" stroke="#c9cdd4" stroke-width="0.7"/>
<rect x="187" y="554" width="28" height="28" fill="#eef0f3" stroke="#c9cdd4" stroke-width="0.7"/>
<rect x="215" y="554" width="28" height="28" fill="#eef0f3" stroke="#c9cdd4" stroke-width="0.7"/>
<rect x="243" y="554" width="28" height="28" fill="#eef0f3" stroke="#c9cdd4" stroke-width="0.7"/>
<rect x="271" y="554" width="28" height="28" fill="#eef0f3" stroke="#c9cdd4" stroke-width="0.7"/>
<rect x="299" y="554" width="28" height="28" fill="#eef0f3" stroke="#c9cdd4" stroke-width="0.7"/>
<rect x="327" y="554" width="28" height="28" fill="#eef0f3" stroke="#c9cdd4" stroke-width="0.7"/>
<rect x="355" y="554" width="28" height="28" fill="#eef0f3" stroke="#c9cdd4" stroke-width="0.7"/>
<rect x="383" y="554" width="28" height="28" fill="#2b3038" stroke="#c9cdd4" stroke-width="0.7"/>
<text x="397" y="571" font-size="8" fill="#8d949e" text-anchor="middle">2</text>
<rect x="411" y="554" width="28" height="28" fill="#eef0f3" stroke="#c9cdd4" stroke-width="0.7"/>
<rect x="75" y="582" width="28" height="28" fill="#2b3038" stroke="#c9cdd4" stroke-width="0.7"/>
<text x="89" y="599" font-size="8" fill="#8d949e" text-anchor="middle">2</text>
<rect x="103" y="582" width="28" height="28" fill="#eef0f3" stroke="#c9cdd4" stroke-width="0.7"/>
<rect x="131" y="582" width="28" height="28" fill="#eef0f3" stroke="#c9cdd4" stroke-width="0.7"/>
<rect x="159" y="582" width="28" height="28" fill="#eef0f3" stroke="#c9cdd4" stroke-width="0.7"/>
<rect x="187" y="582" width="28" height="28" fill="#eef0f3" stroke="#c9cdd4" stroke-width="0.7"/>
<rect x="215" y="582" width="28" height="28" fill="#eef0f3" stroke="#c9cdd4" stroke-width="0.7"/>
<rect x="243" y="582" width="28" height="28" fill="#eef0f3" stroke="#c9cdd4" stroke-width="0.7"/>
<rect x="271" y="582" width="28" height="28" fill="#eef0f3" stroke="#c9cdd4" stroke-width="0.7"/>
<rect x="299" y="582" width="28" height="28" fill="#eef0f3" stroke="#c9cdd4" stroke-width="0.7"/>
<rect x="327" y="582" width="28" height="28" fill="#eef0f3" stroke="#c9cdd4" stroke-width="0.7"/>
<rect x="355" y="582" width="28" height="28" fill="#eef0f3" stroke="#c9cdd4" stroke-width="0.7"/>
<rect x="383" y="582" width="28" height="28" fill="#2b3038" stroke="#c9cdd4" stroke-width="0.7"/>
<text x="397" y="599" font-size="8" fill="#8d949e" text-anchor="middle">2</text>
<rect x="411" y="582" width="28" height="28" fill="#eef0f3" stroke="#c9cdd4" stroke-width="0.7"/>
<rect x="75" y="610" width="28" height="28" fill="#2b3038" stroke="#c9cdd4" stroke-width="0.7"/>
<text x="89" y="627" font-size="8" fill="#8d949e" text-anchor="middle">2</text>
<rect x="103" y="610" width="28" height="28" fill="#2b3038" stroke="#c9cdd4" stroke-width="0.7"/>
<text x="117" y="627" font-size="8" fill="#8d949e" text-anchor="middle">2</text>
<rect x="131" y="610" width="28" height="28" fill="#2b3038" stroke="#c9cdd4" stroke-width="0.7"/>
<text x="145" y="627" font-size="8" fill="#8d949e" text-anchor="middle">2</text>
<rect x="159" y="610" width="28" height="28" fill="#eef0f3" stroke="#c9cdd4" stroke-width="0.7"/>
<rect x="187" y="610" width="28" height="28" fill="#2b3038" stroke="#c9cdd4" stroke-width="0.7"/>
<text x="201" y="627" font-size="8" fill="#8d949e" text-anchor="middle">2</text>
<rect x="215" y="610" width="28" height="28" fill="#2b3038" stroke="#c9cdd4" stroke-width="0.7"/>
<text x="229" y="627" font-size="8" fill="#8d949e" text-anchor="middle">2</text>
<rect x="243" y="610" width="28" height="28" fill="#2b3038" stroke="#c9cdd4" stroke-width="0.7"/>
<text x="257" y="627" font-size="8" fill="#8d949e" text-anchor="middle">2</text>
<rect x="271" y="610" width="28" height="28" fill="#2b3038" stroke="#c9cdd4" stroke-width="0.7"/>
<text x="285" y="627" font-size="8" fill="#8d949e" text-anchor="middle">2</text>
<rect x="299" y="610" width="28" height="28" fill="#2b3038" stroke="#c9cdd4" stroke-width="0.7"/>
<text x="313" y="627" font-size="8" fill="#8d949e" text-anchor="middle">2</text>
<rect x="327" y="610" width="28" height="28" fill="#eef0f3" stroke="#c9cdd4" stroke-width="0.7"/>
<rect x="355" y="610" width="28" height="28" fill="#eef0f3" stroke="#c9cdd4" stroke-width="0.7"/>
<rect x="383" y="610" width="28" height="28" fill="#2b3038" stroke="#c9cdd4" stroke-width="0.7"/>
<text x="397" y="627" font-size="8" fill="#8d949e" text-anchor="middle">2</text>
<rect x="411" y="610" width="28" height="28" fill="#eef0f3" stroke="#c9cdd4" stroke-width="0.7"/>
<rect x="75" y="638" width="28" height="28" fill="#eef0f3" stroke="#c9cdd4" stroke-width="0.7"/>
<rect x="103" y="638" width="28" height="28" fill="#eef0f3" stroke="#c9cdd4" stroke-width="0.7"/>
<rect x="131" y="638" width="28" height="28" fill="#eef0f3" stroke="#c9cdd4" stroke-width="0.7"/>
<rect x="159" y="638" width="28" height="28" fill="#eef0f3" stroke="#c9cdd4" stroke-width="0.7"/>
<rect x="187" y="638" width="28" height="28" fill="#eef0f3" stroke="#c9cdd4" stroke-width="0.7"/>
<rect x="215" y="638" width="28" height="28" fill="#eef0f3" stroke="#c9cdd4" stroke-width="0.7"/>
<rect x="243" y="638" width="28" height="28" fill="#eef0f3" stroke="#c9cdd4" stroke-width="0.7"/>
<rect x="271" y="638" width="28" height="28" fill="#eef0f3" stroke="#c9cdd4" stroke-width="0.7"/>
<rect x="299" y="638" width="28" height="28" fill="#2b3038" stroke="#c9cdd4" stroke-width="0.7"/>
<text x="313" y="655" font-size="8" fill="#8d949e" text-anchor="middle">2</text>
<rect x="327" y="638" width="28" height="28" fill="#eef0f3" stroke="#c9cdd4" stroke-width="0.7"/>
<rect x="355" y="638" width="28" height="28" fill="#eef0f3" stroke="#c9cdd4" stroke-width="0.7"/>
<rect x="383" y="638" width="28" height="28" fill="#2b3038" stroke="#c9cdd4" stroke-width="0.7"/>
<text x="397" y="655" font-size="8" fill="#8d949e" text-anchor="middle">2</text>
<rect x="411" y="638" width="28" height="28" fill="#eef0f3" stroke="#c9cdd4" stroke-width="0.7"/>
<rect x="75" y="666" width="28" height="28" fill="#eef0f3" stroke="#c9cdd4" stroke-width="0.7"/>
<rect x="103" y="666" width="28" height="28" fill="#eef0f3" stroke="#c9cdd4" stroke-width="0.7"/>
<rect x="131" y="666" width="28" height="28" fill="#eef0f3" stroke="#c9cdd4" stroke-width="0.7"/>
<rect x="159" y="666" width="28" height="28" fill="#eef0f3" stroke="#c9cdd4" stroke-width="0.7"/>
<rect x="187" y="666" width="28" height="28" fill="#eef0f3" stroke="#c9cdd4" stroke-width="0.7"/>
<rect x="215" y="666" width="28" height="28" fill="#eef0f3" stroke="#c9cdd4" stroke-width="0.7"/>
<rect x="243" y="666" width="28" height="28" fill="#eef0f3" stroke="#c9cdd4" stroke-width="0.7"/>
<rect x="271" y="666" width="28" height="28" fill="#eef0f3" stroke="#c9cdd4" stroke-width="0.7"/>
<rect x="299" y="666" width="28" height="28" fill="#2b3038" stroke="#c9cdd4" stroke-width="0.7"/>
<text x="313" y="683" font-size="8" fill="#8d949e" text-anchor="middle">2</text>
<rect x="327" y="666" width="28" height="28" fill="#eef0f3" stroke="#c9cdd4" stroke-width="0.7"/>
<rect x="355" y="666" width="28" height="28" fill="#eef0f3" stroke="#c9cdd4" stroke-width="0.7"/>
<rect x="383" y="666" width="28" height="28" fill="#2b3038" stroke="#c9cdd4" stroke-width="0.7"/>
<text x="397" y="683" font-size="8" fill="#8d949e" text-anchor="middle">2</text>
<rect x="411" y="666" width="28" height="28" fill="#eef0f3" stroke="#c9cdd4" stroke-width="0.7"/>
<circle cx="369.0" cy="428.0" r="7" fill="none" stroke="#2f6bd8" stroke-width="1.8"/>
<text x="369.0" y="431.0" font-size="9" fill="#2f6bd8" text-anchor="middle" font-weight="600">t</text>
<rect x="161.0" y="119.6" width="24.1" height="0.8" fill="#7d8794" fill-opacity="0.06" stroke="#7d8794" stroke-width="1" stroke-opacity="0.5"/>
<circle cx="173.0" cy="120.0" r="2.2" fill="#141820"/>
<text x="177.0" y="116.0" font-size="8" fill="#141820">wallpaper_cage</text>
<rect x="331.6" y="108.2" width="70.8" height="87.9" fill="#c07a12" fill-opacity="0.06" stroke="#c07a12" stroke-width="1" stroke-opacity="0.5"/>
<circle cx="369.0" cy="120.0" r="2.2" fill="#141820"/>
<text x="373.0" y="116.0" font-size="8" fill="#141820">loom_alhambra_p6m</text>
<rect x="186.4" y="77.4" width="421.1" height="141.1" fill="#d1344b" fill-opacity="0.06" stroke="#d1344b" stroke-width="1" stroke-opacity="0.5"/>
<circle cx="201.0" cy="148.0" r="2.2" fill="#141820"/>
<text x="205.0" y="144.0" font-size="8" fill="#141820">wall_pattern_gallery</text>
<rect x="219.6" y="136.2" width="70.8" height="87.9" fill="#c07a12" fill-opacity="0.06" stroke="#c07a12" stroke-width="1" stroke-opacity="0.5"/>
<circle cx="257.0" cy="148.0" r="2.2" fill="#141820"/>
<text x="261.0" y="144.0" font-size="8" fill="#141820">pattern_loom</text>
<rect x="107.6" y="164.4" width="73.6" height="23.8" fill="#c07a12" fill-opacity="0.06" stroke="#c07a12" stroke-width="1" stroke-opacity="0.5"/>
<circle cx="145.0" cy="176.0" r="2.2" fill="#141820"/>
<text x="149.0" y="172.0" font-size="8" fill="#141820">loom_escher_mirror</text>
<rect x="61.0" y="189.9" width="84.0" height="122.4" fill="#d1344b" fill-opacity="0.06" stroke="#d1344b" stroke-width="1" stroke-opacity="0.5"/>
<circle cx="145.0" cy="232.0" r="2.2" fill="#141820"/>
<text x="149.0" y="228.0" font-size="8" fill="#141820">vr_tile_editor</text>
<rect x="339.9" y="206.8" width="54.9" height="115.4" fill="#c07a12" fill-opacity="0.06" stroke="#c07a12" stroke-width="1" stroke-opacity="0.5"/>
<circle cx="369.0" cy="232.0" r="2.2" fill="#141820"/>
<text x="373.0" y="228.0" font-size="8" fill="#141820">mill_alhambra_p6m</text>
<rect x="262.6" y="248.5" width="23.5" height="23.0" fill="#7d8794" fill-opacity="0.06" stroke="#7d8794" stroke-width="1" stroke-opacity="0.5"/>
<circle cx="285.0" cy="260.0" r="2.2" fill="#141820"/>
<text x="289.0" y="256.0" font-size="8" fill="#141820">pattern_tile_puzzle</text>
<rect x="87.9" y="318.8" width="54.9" height="115.4" fill="#c07a12" fill-opacity="0.06" stroke="#c07a12" stroke-width="1" stroke-opacity="0.5"/>
<circle cx="117.0" cy="344.0" r="2.2" fill="#141820"/>
<text x="121.0" y="340.0" font-size="8" fill="#141820">mill_persian_p4</text>
<rect x="255.9" y="318.8" width="54.9" height="115.4" fill="#c07a12" fill-opacity="0.06" stroke="#c07a12" stroke-width="1" stroke-opacity="0.5"/>
<circle cx="285.0" cy="344.0" r="2.2" fill="#141820"/>
<text x="289.0" y="340.0" font-size="8" fill="#141820">mill_escher_p4g</text>
<rect x="336.5" y="454.6" width="9.5" height="2.8" fill="#7d8794" fill-opacity="0.06" stroke="#7d8794" stroke-width="1" stroke-opacity="0.5"/>
<circle cx="341.0" cy="456.0" r="2.2" fill="#141820"/>
<text x="345.0" y="452.0" font-size="8" fill="#141820">kaleidoscope</text>
<rect x="73.6" y="338.7" width="131.6" height="289.0" fill="#d1344b" fill-opacity="0.06" stroke="#d1344b" stroke-width="1" stroke-opacity="0.5"/>
<circle cx="201.0" cy="484.0" r="2.2" fill="#141820"/>
<text x="205.0" y="480.0" font-size="8" fill="#141820">pattern_atlas_gallery</text>
<rect x="117.0" y="540.0" width="56.0" height="56.0" fill="#7d8794" fill-opacity="0.06" stroke="#7d8794" stroke-width="1" stroke-opacity="0.5"/>
<circle cx="145.0" cy="568.0" r="2.2" fill="#141820"/>
<text x="149.0" y="564.0" font-size="8" fill="#141820">pattern_artifact</text>
<rect x="355.0" y="557.5" width="28.0" height="21.0" fill="#7d8794" fill-opacity="0.06" stroke="#7d8794" stroke-width="1" stroke-opacity="0.5"/>
<circle cx="369.0" cy="568.0" r="2.2" fill="#141820"/>
<text x="373.0" y="564.0" font-size="8" fill="#141820">tile_meander_floor</text>
<text x="75" y="720" font-size="11" font-weight="600" fill="#141820">what the stamp proposes</text>
<rect x="75" y="730" width="10" height="10" fill="#d1344b" fill-opacity="0.3" stroke="#d1344b"/>
<text x="91" y="738" font-size="10" fill="#141820" font-weight="600">carve to floor</text>
<text x="191" y="738" font-size="10" fill="#5b6472">0 cell(s) a body needs and a wall occupies</text>
<rect x="75" y="745" width="10" height="10" fill="#2e7d4f" fill-opacity="0.3" stroke="#2e7d4f"/>
<text x="91" y="753" font-size="10" fill="#141820" font-weight="600">re-plant the wall</text>
<text x="191" y="753" font-size="10" fill="#5b6472">the same literal, moved to join a wall — never deleted</text>
<rect x="75" y="760" width="10" height="10" fill="#c07a12" fill-opacity="0.3" stroke="#c07a12"/>
<text x="91" y="768" font-size="10" fill="#141820" font-weight="600">nowhere to go</text>
<text x="191" y="768" font-size="10" fill="#5b6472">0 wall(s) with no legal destination, so not carved either</text>
<text x="75" y="795" font-size="10" fill="#141820">bodies: UNDECLARED 6, FITS 5, OVERRUN 3</text>
<text x="75" y="810" font-size="10" fill="#5b6472">walls 89 before, 89 after — the multiset is conserved, a moved wall keeps its own literal</text>
<text x="75" y="825" font-size="10" fill="#5b6472">narrowest lane on the route: n/a (no route clear of bodies) — the contract is that this must not fall</text>
</svg>
