<svg xmlns="http://www.w3.org/2000/svg" width="342" height="510" viewBox="0 0 342 510" font-family="ui-sans-serif,system-ui,-apple-system,sans-serif">
<style>
.title{font-size:14px;font-weight:bold;fill:#eee}
.subtitle{font-size:10px;fill:#888}
.label{font-size:9px;fill:#bbb;text-anchor:middle;pointer-events:none}
.legend{font-size:9px;fill:#888}
</style>
<rect width="342" height="510" fill="#1a1a1f"/>
<text class="title" x="14" y="20">The Fifth Postulate — plan (top-down)</text>
<text class="subtitle" x="14" y="36">11×15 grid, looking down −Y</text>
<rect x="50" y="50" width="22" height="22" fill="#4a4a52" stroke="#0d0d12" stroke-width="0.4"/>
<rect x="72" y="50" width="22" height="22" fill="#4a4a52" stroke="#0d0d12" stroke-width="0.4"/>
<rect x="94" y="50" width="22" height="22" fill="#4a4a52" stroke="#0d0d12" stroke-width="0.4"/>
<rect x="116" y="50" width="22" height="22" fill="#4a4a52" stroke="#0d0d12" stroke-width="0.4"/>
<rect x="138" y="50" width="22" height="22" fill="#4a4a52" stroke="#0d0d12" stroke-width="0.4"/>
<rect x="160" y="50" width="22" height="22" fill="#4a4a52" stroke="#0d0d12" stroke-width="0.4"/>
<rect x="182" y="50" width="22" height="22" fill="#4a4a52" stroke="#0d0d12" stroke-width="0.4"/>
<rect x="204" y="50" width="22" height="22" fill="#4a4a52" stroke="#0d0d12" stroke-width="0.4"/>
<rect x="226" y="50" width="22" height="22" fill="#4a4a52" stroke="#0d0d12" stroke-width="0.4"/>
<rect x="248" y="50" width="22" height="22" fill="#4a4a52" stroke="#0d0d12" stroke-width="0.4"/>
<rect x="270" y="50" width="22" height="22" fill="#4a4a52" stroke="#0d0d12" stroke-width="0.4"/>
<rect x="50" y="72" width="22" height="22" fill="#4a4a52" stroke="#0d0d12" stroke-width="0.4"/>
<rect x="72" y="72" width="22" height="22" fill="#4a4a52" stroke="#0d0d12" stroke-width="0.4"/>
<rect x="94" y="72" width="22" height="22" fill="#4a4a52" stroke="#0d0d12" stroke-width="0.4"/>
<rect x="116" y="72" width="22" height="22" fill="#4a4a52" stroke="#0d0d12" stroke-width="0.4"/>
<rect x="138" y="72" width="22" height="22" fill="#2a2a32" stroke="#0d0d12" stroke-width="0.4"/>
<rect x="160" y="72" width="22" height="22" fill="#4a4a52" stroke="#0d0d12" stroke-width="0.4"/>
<rect x="182" y="72" width="22" height="22" fill="#2a2a32" stroke="#0d0d12" stroke-width="0.4"/>
<rect x="204" y="72" width="22" height="22" fill="#4a4a52" stroke="#0d0d12" stroke-width="0.4"/>
<rect x="226" y="72" width="22" height="22" fill="#4a4a52" stroke="#0d0d12" stroke-width="0.4"/>
<rect x="248" y="72" width="22" height="22" fill="#4a4a52" stroke="#0d0d12" stroke-width="0.4"/>
<rect x="270" y="72" width="22" height="22" fill="#4a4a52" stroke="#0d0d12" stroke-width="0.4"/>
<rect x="50" y="94" width="22" height="22" fill="#101015" stroke="#0d0d12" stroke-width="0.4"/>
<rect x="72" y="94" width="22" height="22" fill="#101015" stroke="#0d0d12" stroke-width="0.4"/>
<rect x="94" y="94" width="22" height="22" fill="#2a2a32" stroke="#0d0d12" stroke-width="0.4"/>
<rect x="116" y="94" width="22" height="22" fill="#101015" stroke="#0d0d12" stroke-width="0.4"/>
<rect x="138" y="94" width="22" height="22" fill="#2a2a32" stroke="#0d0d12" stroke-width="0.4"/>
<rect x="160" y="94" width="22" height="22" fill="#4a4a52" stroke="#0d0d12" stroke-width="0.4"/>
<rect x="182" y="94" width="22" height="22" fill="#2a2a32" stroke="#0d0d12" stroke-width="0.4"/>
<rect x="204" y="94" width="22" height="22" fill="#101015" stroke="#0d0d12" stroke-width="0.4"/>
<rect x="226" y="94" width="22" height="22" fill="#2a2a32" stroke="#0d0d12" stroke-width="0.4"/>
<rect x="248" y="94" width="22" height="22" fill="#101015" stroke="#0d0d12" stroke-width="0.4"/>
<rect x="270" y="94" width="22" height="22" fill="#101015" stroke="#0d0d12" stroke-width="0.4"/>
<rect x="50" y="116" width="22" height="22" fill="#101015" stroke="#0d0d12" stroke-width="0.4"/>
<rect x="72" y="116" width="22" height="22" fill="#4a4a52" stroke="#0d0d12" stroke-width="0.4"/>
<rect x="94" y="116" width="22" height="22" fill="#2a2a32" stroke="#0d0d12" stroke-width="0.4"/>
<rect x="116" y="116" width="22" height="22" fill="#4a4a52" stroke="#0d0d12" stroke-width="0.4"/>
<rect x="138" y="116" width="22" height="22" fill="#2a2a32" stroke="#0d0d12" stroke-width="0.4"/>
<rect x="160" y="116" width="22" height="22" fill="#4a4a52" stroke="#0d0d12" stroke-width="0.4"/>
<rect x="182" y="116" width="22" height="22" fill="#2a2a32" stroke="#0d0d12" stroke-width="0.4"/>
<rect x="204" y="116" width="22" height="22" fill="#4a4a52" stroke="#0d0d12" stroke-width="0.4"/>
<rect x="226" y="116" width="22" height="22" fill="#2a2a32" stroke="#0d0d12" stroke-width="0.4"/>
<rect x="248" y="116" width="22" height="22" fill="#101015" stroke="#0d0d12" stroke-width="0.4"/>
<rect x="270" y="116" width="22" height="22" fill="#101015" stroke="#0d0d12" stroke-width="0.4"/>
<rect x="50" y="138" width="22" height="22" fill="#101015" stroke="#0d0d12" stroke-width="0.4"/>
<rect x="72" y="138" width="22" height="22" fill="#101015" stroke="#0d0d12" stroke-width="0.4"/>
<rect x="94" y="138" width="22" height="22" fill="#3a3a42" stroke="#0d0d12" stroke-width="0.4"/>
<rect x="116" y="138" width="22" height="22" fill="#4a4a52" stroke="#0d0d12" stroke-width="0.4"/>
<rect x="138" y="138" width="22" height="22" fill="#4a4a52" stroke="#0d0d12" stroke-width="0.4"/>
<rect x="160" y="138" width="22" height="22" fill="#4a4a52" stroke="#0d0d12" stroke-width="0.4"/>
<rect x="182" y="138" width="22" height="22" fill="#4a4a52" stroke="#0d0d12" stroke-width="0.4"/>
<rect x="204" y="138" width="22" height="22" fill="#4a4a52" stroke="#0d0d12" stroke-width="0.4"/>
<rect x="226" y="138" width="22" height="22" fill="#3a3a42" stroke="#0d0d12" stroke-width="0.4"/>
<rect x="248" y="138" width="22" height="22" fill="#101015" stroke="#0d0d12" stroke-width="0.4"/>
<rect x="270" y="138" width="22" height="22" fill="#101015" stroke="#0d0d12" stroke-width="0.4"/>
<rect x="50" y="160" width="22" height="22" fill="#101015" stroke="#0d0d12" stroke-width="0.4"/>
<rect x="72" y="160" width="22" height="22" fill="#3a3a42" stroke="#0d0d12" stroke-width="0.4"/>
<rect x="94" y="160" width="22" height="22" fill="#4a4a52" stroke="#0d0d12" stroke-width="0.4"/>
<rect x="116" y="160" width="22" height="22" fill="#4a4a52" stroke="#0d0d12" stroke-width="0.4"/>
<rect x="138" y="160" width="22" height="22" fill="#4a4a52" stroke="#0d0d12" stroke-width="0.4"/>
<rect x="160" y="160" width="22" height="22" fill="#4a4a52" stroke="#0d0d12" stroke-width="0.4"/>
<rect x="182" y="160" width="22" height="22" fill="#4a4a52" stroke="#0d0d12" stroke-width="0.4"/>
<rect x="204" y="160" width="22" height="22" fill="#4a4a52" stroke="#0d0d12" stroke-width="0.4"/>
<rect x="226" y="160" width="22" height="22" fill="#4a4a52" stroke="#0d0d12" stroke-width="0.4"/>
<rect x="248" y="160" width="22" height="22" fill="#3a3a42" stroke="#0d0d12" stroke-width="0.4"/>
<rect x="270" y="160" width="22" height="22" fill="#101015" stroke="#0d0d12" stroke-width="0.4"/>
<rect x="50" y="182" width="22" height="22" fill="#101015" stroke="#0d0d12" stroke-width="0.4"/>
<rect x="72" y="182" width="22" height="22" fill="#3a3a42" stroke="#0d0d12" stroke-width="0.4"/>
<rect x="94" y="182" width="22" height="22" fill="#4a4a52" stroke="#0d0d12" stroke-width="0.4"/>
<rect x="116" y="182" width="22" height="22" fill="#4a4a52" stroke="#0d0d12" stroke-width="0.4"/>
<rect x="138" y="182" width="22" height="22" fill="#4a4a52" stroke="#0d0d12" stroke-width="0.4"/>
<rect x="160" y="182" width="22" height="22" fill="#4a4a52" stroke="#0d0d12" stroke-width="0.4"/>
<rect x="182" y="182" width="22" height="22" fill="#4a4a52" stroke="#0d0d12" stroke-width="0.4"/>
<rect x="204" y="182" width="22" height="22" fill="#4a4a52" stroke="#0d0d12" stroke-width="0.4"/>
<rect x="226" y="182" width="22" height="22" fill="#4a4a52" stroke="#0d0d12" stroke-width="0.4"/>
<rect x="248" y="182" width="22" height="22" fill="#3a3a42" stroke="#0d0d12" stroke-width="0.4"/>
<rect x="270" y="182" width="22" height="22" fill="#101015" stroke="#0d0d12" stroke-width="0.4"/>
<rect x="50" y="204" width="22" height="22" fill="#101015" stroke="#0d0d12" stroke-width="0.4"/>
<rect x="72" y="204" width="22" height="22" fill="#3a3a42" stroke="#0d0d12" stroke-width="0.4"/>
<rect x="94" y="204" width="22" height="22" fill="#4a4a52" stroke="#0d0d12" stroke-width="0.4"/>
<rect x="116" y="204" width="22" height="22" fill="#4a4a52" stroke="#0d0d12" stroke-width="0.4"/>
<rect x="138" y="204" width="22" height="22" fill="#4a4a52" stroke="#0d0d12" stroke-width="0.4"/>
<rect x="160" y="204" width="22" height="22" fill="#4a4a52" stroke="#0d0d12" stroke-width="0.4"/>
<rect x="182" y="204" width="22" height="22" fill="#4a4a52" stroke="#0d0d12" stroke-width="0.4"/>
<rect x="204" y="204" width="22" height="22" fill="#4a4a52" stroke="#0d0d12" stroke-width="0.4"/>
<rect x="226" y="204" width="22" height="22" fill="#4a4a52" stroke="#0d0d12" stroke-width="0.4"/>
<rect x="248" y="204" width="22" height="22" fill="#3a3a42" stroke="#0d0d12" stroke-width="0.4"/>
<rect x="270" y="204" width="22" height="22" fill="#101015" stroke="#0d0d12" stroke-width="0.4"/>
<rect x="50" y="226" width="22" height="22" fill="#101015" stroke="#0d0d12" stroke-width="0.4"/>
<rect x="72" y="226" width="22" height="22" fill="#3a3a42" stroke="#0d0d12" stroke-width="0.4"/>
<rect x="94" y="226" width="22" height="22" fill="#4a4a52" stroke="#0d0d12" stroke-width="0.4"/>
<rect x="116" y="226" width="22" height="22" fill="#4a4a52" stroke="#0d0d12" stroke-width="0.4"/>
<rect x="138" y="226" width="22" height="22" fill="#4a4a52" stroke="#0d0d12" stroke-width="0.4"/>
<rect x="160" y="226" width="22" height="22" fill="#4a4a52" stroke="#0d0d12" stroke-width="0.4"/>
<rect x="182" y="226" width="22" height="22" fill="#4a4a52" stroke="#0d0d12" stroke-width="0.4"/>
<rect x="204" y="226" width="22" height="22" fill="#4a4a52" stroke="#0d0d12" stroke-width="0.4"/>
<rect x="226" y="226" width="22" height="22" fill="#4a4a52" stroke="#0d0d12" stroke-width="0.4"/>
<rect x="248" y="226" width="22" height="22" fill="#3a3a42" stroke="#0d0d12" stroke-width="0.4"/>
<rect x="270" y="226" width="22" height="22" fill="#101015" stroke="#0d0d12" stroke-width="0.4"/>
<rect x="50" y="248" width="22" height="22" fill="#101015" stroke="#0d0d12" stroke-width="0.4"/>
<rect x="72" y="248" width="22" height="22" fill="#3a3a42" stroke="#0d0d12" stroke-width="0.4"/>
<rect x="94" y="248" width="22" height="22" fill="#4a4a52" stroke="#0d0d12" stroke-width="0.4"/>
<rect x="116" y="248" width="22" height="22" fill="#4a4a52" stroke="#0d0d12" stroke-width="0.4"/>
<rect x="138" y="248" width="22" height="22" fill="#4a4a52" stroke="#0d0d12" stroke-width="0.4"/>
<rect x="160" y="248" width="22" height="22" fill="#4a4a52" stroke="#0d0d12" stroke-width="0.4"/>
<rect x="182" y="248" width="22" height="22" fill="#4a4a52" stroke="#0d0d12" stroke-width="0.4"/>
<rect x="204" y="248" width="22" height="22" fill="#4a4a52" stroke="#0d0d12" stroke-width="0.4"/>
<rect x="226" y="248" width="22" height="22" fill="#4a4a52" stroke="#0d0d12" stroke-width="0.4"/>
<rect x="248" y="248" width="22" height="22" fill="#3a3a42" stroke="#0d0d12" stroke-width="0.4"/>
<rect x="270" y="248" width="22" height="22" fill="#101015" stroke="#0d0d12" stroke-width="0.4"/>
<rect x="50" y="270" width="22" height="22" fill="#101015" stroke="#0d0d12" stroke-width="0.4"/>
<rect x="72" y="270" width="22" height="22" fill="#101015" stroke="#0d0d12" stroke-width="0.4"/>
<rect x="94" y="270" width="22" height="22" fill="#3a3a42" stroke="#0d0d12" stroke-width="0.4"/>
<rect x="116" y="270" width="22" height="22" fill="#4a4a52" stroke="#0d0d12" stroke-width="0.4"/>
<rect x="138" y="270" width="22" height="22" fill="#4a4a52" stroke="#0d0d12" stroke-width="0.4"/>
<rect x="160" y="270" width="22" height="22" fill="#4a4a52" stroke="#0d0d12" stroke-width="0.4"/>
<rect x="182" y="270" width="22" height="22" fill="#4a4a52" stroke="#0d0d12" stroke-width="0.4"/>
<rect x="204" y="270" width="22" height="22" fill="#4a4a52" stroke="#0d0d12" stroke-width="0.4"/>
<rect x="226" y="270" width="22" height="22" fill="#3a3a42" stroke="#0d0d12" stroke-width="0.4"/>
<rect x="248" y="270" width="22" height="22" fill="#101015" stroke="#0d0d12" stroke-width="0.4"/>
<rect x="270" y="270" width="22" height="22" fill="#101015" stroke="#0d0d12" stroke-width="0.4"/>
<rect x="50" y="292" width="22" height="22" fill="#101015" stroke="#0d0d12" stroke-width="0.4"/>
<rect x="72" y="292" width="22" height="22" fill="#101015" stroke="#0d0d12" stroke-width="0.4"/>
<rect x="94" y="292" width="22" height="22" fill="#3a3a42" stroke="#0d0d12" stroke-width="0.4"/>
<rect x="116" y="292" width="22" height="22" fill="#4a4a52" stroke="#0d0d12" stroke-width="0.4"/>
<rect x="138" y="292" width="22" height="22" fill="#4a4a52" stroke="#0d0d12" stroke-width="0.4"/>
<rect x="160" y="292" width="22" height="22" fill="#4a4a52" stroke="#0d0d12" stroke-width="0.4"/>
<rect x="182" y="292" width="22" height="22" fill="#4a4a52" stroke="#0d0d12" stroke-width="0.4"/>
<rect x="204" y="292" width="22" height="22" fill="#4a4a52" stroke="#0d0d12" stroke-width="0.4"/>
<rect x="226" y="292" width="22" height="22" fill="#3a3a42" stroke="#0d0d12" stroke-width="0.4"/>
<rect x="248" y="292" width="22" height="22" fill="#101015" stroke="#0d0d12" stroke-width="0.4"/>
<rect x="270" y="292" width="22" height="22" fill="#101015" stroke="#0d0d12" stroke-width="0.4"/>
<rect x="50" y="314" width="22" height="22" fill="#101015" stroke="#0d0d12" stroke-width="0.4"/>
<rect x="72" y="314" width="22" height="22" fill="#101015" stroke="#0d0d12" stroke-width="0.4"/>
<rect x="94" y="314" width="22" height="22" fill="#3a3a42" stroke="#0d0d12" stroke-width="0.4"/>
<rect x="116" y="314" width="22" height="22" fill="#4a4a52" stroke="#0d0d12" stroke-width="0.4"/>
<rect x="138" y="314" width="22" height="22" fill="#4a4a52" stroke="#0d0d12" stroke-width="0.4"/>
<rect x="160" y="314" width="22" height="22" fill="#4a4a52" stroke="#0d0d12" stroke-width="0.4"/>
<rect x="182" y="314" width="22" height="22" fill="#4a4a52" stroke="#0d0d12" stroke-width="0.4"/>
<rect x="204" y="314" width="22" height="22" fill="#4a4a52" stroke="#0d0d12" stroke-width="0.4"/>
<rect x="226" y="314" width="22" height="22" fill="#3a3a42" stroke="#0d0d12" stroke-width="0.4"/>
<rect x="248" y="314" width="22" height="22" fill="#101015" stroke="#0d0d12" stroke-width="0.4"/>
<rect x="270" y="314" width="22" height="22" fill="#101015" stroke="#0d0d12" stroke-width="0.4"/>
<rect x="50" y="336" width="22" height="22" fill="#101015" stroke="#0d0d12" stroke-width="0.4"/>
<rect x="72" y="336" width="22" height="22" fill="#101015" stroke="#0d0d12" stroke-width="0.4"/>
<rect x="94" y="336" width="22" height="22" fill="#101015" stroke="#0d0d12" stroke-width="0.4"/>
<rect x="116" y="336" width="22" height="22" fill="#3a3a42" stroke="#0d0d12" stroke-width="0.4"/>
<rect x="138" y="336" width="22" height="22" fill="#3a3a42" stroke="#0d0d12" stroke-width="0.4"/>
<rect x="160" y="336" width="22" height="22" fill="#101015" stroke="#0d0d12" stroke-width="0.4"/>
<rect x="182" y="336" width="22" height="22" fill="#3a3a42" stroke="#0d0d12" stroke-width="0.4"/>
<rect x="204" y="336" width="22" height="22" fill="#3a3a42" stroke="#0d0d12" stroke-width="0.4"/>
<rect x="226" y="336" width="22" height="22" fill="#101015" stroke="#0d0d12" stroke-width="0.4"/>
<rect x="248" y="336" width="22" height="22" fill="#101015" stroke="#0d0d12" stroke-width="0.4"/>
<rect x="270" y="336" width="22" height="22" fill="#101015" stroke="#0d0d12" stroke-width="0.4"/>
<rect x="50" y="358" width="22" height="22" fill="#101015" stroke="#0d0d12" stroke-width="0.4"/>
<rect x="72" y="358" width="22" height="22" fill="#101015" stroke="#0d0d12" stroke-width="0.4"/>
<rect x="94" y="358" width="22" height="22" fill="#3a3a42" stroke="#0d0d12" stroke-width="0.4"/>
<rect x="116" y="358" width="22" height="22" fill="#4a4a52" stroke="#0d0d12" stroke-width="0.4"/>
<rect x="138" y="358" width="22" height="22" fill="#4a4a52" stroke="#0d0d12" stroke-width="0.4"/>
<rect x="160" y="358" width="22" height="22" fill="#4a4a52" stroke="#0d0d12" stroke-width="0.4"/>
<rect x="182" y="358" width="22" height="22" fill="#4a4a52" stroke="#0d0d12" stroke-width="0.4"/>
<rect x="204" y="358" width="22" height="22" fill="#4a4a52" stroke="#0d0d12" stroke-width="0.4"/>
<rect x="226" y="358" width="22" height="22" fill="#3a3a42" stroke="#0d0d12" stroke-width="0.4"/>
<rect x="248" y="358" width="22" height="22" fill="#101015" stroke="#0d0d12" stroke-width="0.4"/>
<rect x="270" y="358" width="22" height="22" fill="#101015" stroke="#0d0d12" stroke-width="0.4"/>
<line x1="61.0" y1="61.0" x2="171.0" y2="347.0" stroke="#6b6" stroke-width="1.3" stroke-dasharray="4 3" opacity="0.55"/>
<circle cx="61.0" cy="61.0" r="6" fill="#4ade80" stroke="#0d0d12" stroke-width="1"/>
<text x="70.0" y="64.0" font-size="9" fill="#4ade80">spawn</text>
<circle cx="171.0" cy="347.0" r="6" fill="#f87171" stroke="#0d0d12" stroke-width="1"/>
<text x="180.0" y="350.0" font-size="9" fill="#f87171">teleport</text>
<rect x="224.7" y="123.3" width="68.6" height="51.5" fill="#6b8a4a" stroke="#fff" stroke-width="0.6" opacity="0.92" rx="1.5"><title>science_screen
family: shaders
footprint: (4.0, 3.0, 1.0)</title></rect>
<text x="259.0" y="183.7" class="label">science_screen</text>
<rect x="118.4" y="153.8" width="17.2" height="34.3" fill="#7a7a7a" stroke="#fff" stroke-width="0.6" opacity="0.92" rx="1.5"><title>parallel_lines
family: primitives
footprint: (1.0, 2.0, 3.0)</title></rect>
<text x="127.0" y="197.2" class="label">parallel_lines</text>
<rect x="206.4" y="162.4" width="17.2" height="17.2" fill="#2b6788" stroke="#fff" stroke-width="0.6" opacity="0.92" rx="1.5"><title>angle_sum_triangle
family: foundations
footprint: (1.0, 1.0, 1.0)</title></rect>
<text x="215.0" y="188.6" class="label">angle_sum_triangle</text>
<rect x="162.4" y="206.4" width="17.2" height="17.2" fill="#92a2eb" stroke="#fff" stroke-width="0.6" opacity="0.92" rx="1.5"><title>euclid_postulates_plaque
family: substrate_vectors
footprint: (1.0, 1.0, 1.0)</title></rect>
<text x="171.0" y="232.6" class="label">euclid_postulates_</text>
<text class="subtitle" x="14" y="396">legend:</text>
<rect x="64" y="387" width="11" height="11" fill="#2b6788" stroke="#111" stroke-width="0.4"/>
<text x="78" y="396" class="legend">foundations</text>
<rect x="158" y="387" width="11" height="11" fill="#7a7a7a" stroke="#111" stroke-width="0.4"/>
<text x="172" y="396" class="legend">primitives</text>
<rect x="246" y="387" width="11" height="11" fill="#6b8a4a" stroke="#111" stroke-width="0.4"/>
<text x="260" y="396" class="legend">shaders</text>
<rect x="316" y="387" width="11" height="11" fill="#92a2eb" stroke="#111" stroke-width="0.4"/>
<text x="330" y="396" class="legend">substrate_vectors</text>
</svg>